<svg id="logo_git"
	width="232"
	height="232"
	viewBox="0 0 232 232"
	fill="none"
	xmlns="http://www.w3.org/2000/svg">
	<path
		d="M226.66 105.283L125.79 4.3599C124.409 2.97766 122.769 1.88119 120.964 1.13311C119.16 0.385032 117.226 0 115.272 0C113.319 0 111.385 0.385032 109.58 1.13311C107.775 1.88119 106.135 2.97766 104.754 4.3599L83.8098 25.32L110.377 51.9045C116.554 49.8187 123.633 51.2167 128.554 56.1432C130.899 58.4923 132.536 61.4541 133.278 64.6902C134.02 67.9263 133.838 71.306 132.751 74.4432L158.358 100.066C164.552 97.9294 171.7 99.3092 176.646 104.268C178.29 105.912 179.595 107.865 180.485 110.014C181.375 112.163 181.833 114.466 181.833 116.792C181.833 119.119 181.375 121.422 180.485 123.571C179.595 125.72 178.29 127.672 176.646 129.317C175.002 130.963 173.05 132.268 170.902 133.159C168.754 134.05 166.451 134.509 164.125 134.509C161.8 134.509 159.497 134.05 157.349 133.159C155.201 132.268 153.249 130.963 151.605 129.317C149.136 126.844 147.453 123.696 146.767 120.268C146.081 116.84 146.424 113.286 147.752 110.053L123.872 86.1569L123.87 149.039C125.601 149.895 127.182 151.026 128.552 152.389C135.466 159.306 135.466 170.515 128.552 177.444C121.637 184.361 110.428 184.361 103.519 177.444C96.6048 170.515 96.6048 159.306 103.519 152.389C105.177 150.73 107.148 149.416 109.317 148.524V85.0571C107.144 84.1713 105.173 82.8567 103.519 81.1918C98.2817 75.9548 97.0205 68.2627 99.7052 61.8266L73.515 35.6154L4.35694 104.816C1.56717 107.609 0 111.396 0 115.345C0 119.294 1.56717 123.081 4.35694 125.873L105.221 226.796C108.011 229.588 111.795 231.157 115.741 231.157C119.686 231.157 123.47 229.588 126.26 226.796L226.658 126.35C229.448 123.557 231.015 119.77 231.015 115.821C231.015 111.871 229.448 108.084 226.658 105.291"
		fill="#F05133"
	/>
</svg>
