<svg id="logo_gsap" width="100%" height="100%" viewBox="0 0 227 84" version="1.1" xmlns="http://www.w3.org/2000/svg" xmlns:xlink="http://www.w3.org/1999/xlink" xml:space="preserve" xmlns:serif="http://www.serif.com/" style="fill-rule:evenodd;clip-rule:evenodd;stroke-linejoin:round;stroke-miterlimit:2;">
    <g transform="matrix(1,0,0,1,-66.6,-858.36)">
        <g transform="matrix(1,0,0,1,510,329)">
            <g id="gsap" transform="matrix(2.77598,0,0,2.77598,-443.399,529.36)">
                <path d="M23.81,14.012L23.81,14.025L22.735,18.691C22.677,18.955 22.413,19.148 22.109,19.148L20.81,19.148C20.714,19.148 20.629,19.212 20.602,19.304C19.404,23.368 17.782,26.161 15.64,27.838C13.818,29.266 11.572,29.932 8.571,29.932C5.875,29.932 4.057,29.065 2.515,27.353C0.477,25.091 -0.365,21.387 0.145,16.925C1.065,8.548 5.41,0.095 13.776,0.095C16.321,0.073 18.319,0.858 19.709,2.425C21.179,4.083 21.925,6.579 21.929,9.847C21.921,10.143 21.676,10.383 21.38,10.383L15.25,10.383C15.028,10.376 14.848,10.195 14.843,9.973C14.793,7.713 14.123,6.613 12.791,6.613C10.441,6.613 9.055,9.803 8.32,11.571C7.293,14.041 6.77,16.724 6.873,19.396C6.922,20.64 7.122,22.389 8.303,23.114C9.35,23.756 10.844,23.33 11.749,22.619C12.653,21.907 13.381,20.676 13.687,19.553C13.73,19.397 13.733,19.276 13.692,19.222C13.649,19.166 13.53,19.153 13.439,19.153L11.865,19.153C11.696,19.154 11.536,19.08 11.427,18.951C11.343,18.851 11.311,18.717 11.34,18.589L12.416,13.915C12.469,13.676 12.686,13.495 12.953,13.463L12.953,13.451L23.283,13.451C23.307,13.451 23.332,13.451 23.355,13.456C23.623,13.491 23.812,13.74 23.807,14.012L23.81,14.012Z" style="fill:rgb(255,252,225);fill-rule:nonzero;"/>
                <path d="M41.595,8.65C41.585,8.944 41.341,9.18 41.047,9.18L35.401,9.18C35.031,9.18 34.722,8.88 34.722,8.515C34.722,6.868 34.152,6.066 32.986,6.066C31.82,6.066 31.068,6.782 31.046,8.033C31.021,9.428 31.81,10.696 34.056,12.874C37.013,15.648 38.198,18.105 38.141,21.353C38.048,26.605 34.477,30 29.043,30C26.268,30 24.148,29.258 22.738,27.794C21.307,26.307 20.651,24.125 20.788,21.309C20.798,21.015 21.043,20.778 21.337,20.779L27.177,20.779C27.342,20.782 27.497,20.858 27.599,20.987C27.688,21.094 27.727,21.234 27.705,21.371C27.64,22.387 27.817,23.146 28.217,23.566C28.473,23.838 28.83,23.976 29.275,23.976C30.354,23.976 30.986,23.214 31.01,21.886C31.03,20.738 30.667,19.732 28.689,17.697C26.134,15.201 23.843,12.622 23.914,8.567C23.956,6.215 24.89,4.064 26.545,2.51C28.295,0.868 30.688,0 33.466,0C36.249,0.02 38.358,0.814 39.735,2.36C41.039,3.825 41.666,5.941 41.597,8.65L41.595,8.65Z" style="fill:rgb(255,252,225);fill-rule:nonzero;"/>
                <path d="M59.095,29.012L59.132,1.079C59.132,1.076 59.132,1.074 59.132,1.071C59.132,0.783 58.895,0.546 58.607,0.546C58.606,0.546 58.604,0.546 58.603,0.546L49.865,0.546C49.571,0.546 49.442,0.799 49.358,0.966L36.706,28.841L36.706,28.846L36.701,28.853C36.561,29.196 36.827,29.563 37.198,29.563L43.306,29.563C43.636,29.563 43.855,29.463 43.962,29.255L45.175,26.34C45.324,25.951 45.352,25.915 45.776,25.915L51.612,25.915C52.018,25.915 52.026,25.923 52.02,26.32L51.889,29.03C51.889,29.033 51.889,29.035 51.889,29.038C51.889,29.326 52.126,29.563 52.414,29.563C52.415,29.563 52.416,29.563 52.417,29.563L58.588,29.563C58.743,29.565 58.89,29.498 58.991,29.381C59.078,29.279 59.116,29.144 59.095,29.012ZM48.285,19.686C48.239,19.686 48.193,19.685 48.147,19.681C48.071,19.675 48.012,19.611 48.012,19.535C48.012,19.522 48.014,19.509 48.017,19.497C48.029,19.457 48.046,19.402 48.071,19.335L52.447,8.507C52.486,8.4 52.532,8.296 52.583,8.194C52.654,8.048 52.74,8.038 52.767,8.146C52.79,8.236 52.265,19.264 52.265,19.264C52.224,19.677 52.205,19.694 51.798,19.728L48.289,19.688L48.281,19.688L48.284,19.686L48.285,19.686Z" style="fill:rgb(255,252,225);fill-rule:nonzero;"/>
                <path d="M71.543,0.546L66.904,0.546C66.659,0.546 66.384,0.676 66.32,0.968L59.864,28.998C59.835,29.126 59.868,29.26 59.952,29.361C60.061,29.489 60.221,29.563 60.389,29.563L66.187,29.563C66.499,29.563 66.712,29.41 66.77,29.145L67.474,25.968C67.524,25.72 67.438,25.528 67.216,25.412C67.112,25.358 67.008,25.304 66.904,25.25L65.899,24.727L64.899,24.205L64.512,24.004C64.448,23.972 64.408,23.906 64.409,23.834C64.412,23.726 64.501,23.639 64.609,23.64L67.786,23.654C68.736,23.659 69.687,23.592 70.622,23.42C77.202,22.205 81.572,16.935 81.698,9.764C81.806,3.644 78.39,0.543 71.548,0.543L71.543,0.546ZM69.964,17.226L69.84,17.226C69.561,17.226 69.512,17.196 69.504,17.186C69.499,17.179 71.336,9.113 71.337,9.102C71.384,8.869 71.382,8.735 71.238,8.656C71.054,8.554 68.372,7.14 68.372,7.14C68.308,7.107 68.269,7.04 68.271,6.968C68.274,6.862 68.362,6.776 68.468,6.776L72.709,6.776C74.029,6.816 74.765,7.997 74.73,10.014C74.669,13.505 73.009,17.104 69.964,17.227L69.964,17.226Z" style="fill:rgb(255,252,225);fill-rule:nonzero;"/>
            </g>
        </g>
    </g>
</svg>
