<?xml version="1.0" encoding="UTF-8" standalone="no"?><!DOCTYPE svg PUBLIC "-//W3C//DTD SVG 1.1//EN" "http://www.w3.org/Graphics/SVG/1.1/DTD/svg11.dtd"><svg width="100%" height="100%" viewBox="0 0 4134 4134" version="1.1" xmlns="http://www.w3.org/2000/svg" xmlns:xlink="http://www.w3.org/1999/xlink" xml:space="preserve" xmlns:serif="http://www.serif.com/" style="fill-rule:evenodd;clip-rule:evenodd;"><path d="M1360.113,253.629c-39.121,31.65 -113.092,91.012 -164.375,131.914c-142.246,113.455 -699.875,560.317 -744.346,596.488l-17.358,14.118l14.029,191.793c30.5,417.056 39.896,547.569 52.542,729.987c7.238,104.41 14.283,190.987 15.654,192.388c2.113,2.168 176.604,8.803 448.325,17.054c36.667,1.112 88.538,3.026 115.271,4.255l48.608,2.227l30.908,-36.527c81.421,-96.225 382.812,-466.836 656.775,-807.617c67.496,-83.958 144.912,-180.027 172.037,-213.481c45.246,-55.812 49.317,-62.219 49.317,-77.621l0,-16.784l42.708,2.474c124.113,7.19 152.592,16.839 140.408,47.576c-5.508,13.887 -794.587,1000.58 -1018.492,1273.556c-215.454,262.67 -774.6,933.225 -941.621,1129.23c-90.287,105.956 -88.008,102.938 -82.025,108.559c2.592,2.435 5.333,3.668 6.092,2.732c3.129,-3.859 165.138,-196.228 192.621,-228.715c147.058,-173.835 626.625,-749.965 805.658,-967.889c303.425,-369.331 1045.133,-1298.309 1051,-1316.357c12.887,-39.646 -22.113,-54.931 -138.796,-60.614l-56.25,-2.744l-2.667,-100.249c-1.467,-55.139 -4.721,-185.679 -7.233,-290.089c-2.508,-104.41 -5.821,-232.109 -7.358,-283.775l-2.796,-93.939l-112.5,-2.419c-61.875,-1.331 -194.062,-2.568 -293.75,-2.748l-181.25,-0.329l-71.137,57.546m-66.296,70.267c-106.275,84.804 -212.449,169.72 -318.521,254.748c-114.744,91.995 -229.5,183.977 -344.267,275.947l-166.883,133.731l18.967,2.497c10.433,1.37 109.908,4.693 221.054,7.378c328.896,7.946 347.917,8.795 347.917,15.567c0,4.873 -6.721,5.707 -39.583,4.912c-21.771,-0.528 -156.321,-3.887 -299,-7.464c-142.679,-3.574 -260.533,-5.452 -261.896,-4.176c-2.375,2.235 2.871,80.021 40.204,595.807c9.35,129.167 21.137,293.854 26.196,365.972l9.196,131.124l79.108,2.732c230.192,7.954 453.35,14.885 479.108,14.885l29.167,0l-2.808,-59.691c-2.646,-56.266 -12.108,-229.78 -41.067,-753.038c-14.421,-260.639 -14.192,-251.922 -6.621,-251.922c7.625,0 7.55,-1.037 31.846,459.912c19.142,363.205 32.579,593.685 34.733,595.705c1.383,1.299 26.062,-27.931 106.125,-125.691c21.013,-25.661 38.196,-50.32 38.183,-54.798c-0.017,-4.482 -2.842,-55.428 -6.279,-113.213l-6.25,-105.071l26.296,-28.01c27.929,-29.755 47.929,-52.144 219.538,-245.773c111.462,-125.769 118.083,-132.572 123.812,-127.214c1.829,1.71 5.2,41.525 7.492,88.479l4.167,85.367l93.758,-116.692l93.763,-116.692l-4.904,-90.91l-4.9,-90.91l58.642,-64.172c37.542,-41.087 61.037,-63.746 65.308,-62.975c6.188,1.112 13.654,59.491 16.908,132.228l0.612,13.699l7.071,-9.684c3.892,-5.327 17.988,-22.628 31.325,-38.449l24.25,-28.761l-4.508,-182.704c-7.229,-293.318 -12.429,-516.08 -13.117,-561.789l-0.633,-42.472l-25.538,23.215c-42.729,38.844 -236.9,208.737 -658.904,576.522c-224.767,195.891 -238.229,207.367 -243.217,207.367c-14.429,0 -3.9,-11.214 70.333,-74.87c30.938,-26.534 134.029,-116.093 229.096,-199.026c95.067,-82.933 199.129,-173.67 231.25,-201.637c134.558,-117.158 311.117,-272.499 347.987,-306.172l39.583,-36.151l-281.479,-0.098l-281.479,-0.102l-141.142,112.532m642.146,294.007l-41.121,38.793l3.054,63.065c3.763,77.688 2.692,77.273 57.433,22.205l40.621,-40.864l-3.183,-59.879c-2.579,-48.5 -4.371,-60.094 -9.433,-60.998c-3.438,-0.611 -24.754,16.345 -47.371,37.678m4.296,15.551l-32.354,30.569l2.917,45.835c1.604,25.207 4.133,46.535 5.621,47.4c1.488,0.861 16.433,-12.486 33.213,-29.665l30.512,-31.235l-0.729,-43.854c-0.404,-24.119 -2.104,-45.154 -3.779,-46.739c-1.675,-1.585 -17.604,10.873 -35.4,27.689m1453.492,54.728c-84.396,20.252 -158.583,73.993 -207.438,150.264l-14.312,22.346l-20.95,-30.213c-160.179,-231.02 -499.583,-165.686 -574.017,110.5c-5.763,21.375 -11.254,39.595 -12.204,40.488c-0.95,0.892 -60.183,-0.474 -131.629,-3.033c-126.35,-4.533 -142.867,-3.695 -135.908,6.881c1.321,2.008 51.688,4.767 111.929,6.141c60.242,1.37 119.842,3.613 132.446,4.983l22.917,2.489l0.379,72.928c0.404,78.342 4.946,110.923 26.804,192.314c40.321,150.127 107.125,266.428 287.796,501.01c77.904,101.153 145.437,191.131 145.437,193.777c0,1.061 -19.596,1.93 -43.546,1.93c-94.217,0 -151.988,27.751 -130.608,62.744c7.042,11.527 7.021,11.586 -4.179,13.84c-59.621,12.009 -108.846,37.4 -130.912,67.527c-57.221,78.13 41.471,153.888 201.942,155.008c40.208,0.282 44.775,1.033 44.792,7.359c0.121,58.884 139.983,97.45 260.429,71.813c59.817,-12.737 122.962,-47.678 131.958,-73.022c1.467,-4.133 6.992,-4.137 30.175,-0.031c83.554,14.811 180.288,-25.669 171.996,-71.973c-1.196,-6.662 -3.404,-15.038 -4.908,-18.612c-1.892,-4.478 -0.079,-7.288 5.838,-9.053c34.233,-10.204 42.883,-43.345 18.067,-69.202c-14.017,-14.608 -57.825,-38.531 -70.562,-38.539c-12.858,-0.008 -27.596,-8.192 -22.825,-12.674c8.2,-7.703 5.392,-25.262 -6.096,-38.085c-22.85,-25.508 -67.838,-38.946 -142.683,-42.613l-51.546,-2.529l24.192,-29.356c32.421,-39.345 85.896,-97.881 139.45,-152.652c231.363,-236.61 338.192,-414.273 366.621,-609.69c6.279,-43.169 -7.796,-40.656 117.808,-21.011c87.108,13.625 106.975,14.498 96.05,4.235c-3.658,-3.437 -130.396,-24.158 -179.575,-29.364l-26.042,-2.756l-0.083,-61.143c-0.125,-92.346 -9.938,-143.962 -37.813,-198.881c-37.642,-74.169 -115.771,-139.97 -199.604,-168.112c-41.887,-14.06 -142.75,-17.269 -189.583,-6.032m41,8.478c-96.262,10.036 -192.112,73.684 -242.158,160.809c-8.529,14.846 -17.6,27.027 -20.154,27.062c-2.554,0.035 -13.608,-14.42 -24.558,-32.127c-101.783,-164.554 -325.783,-195.844 -465.1,-64.971c-76.037,71.429 -114.188,187.859 -103.704,316.497c17.342,212.835 90.579,366.133 310.35,649.607c77.85,100.417 127.887,167.455 185.517,248.548c26.012,36.597 54.662,75.95 63.675,87.454l16.387,20.917l13.475,-20.917c55.221,-85.7 153.179,-202.471 282.179,-336.37c259.896,-269.763 353.554,-453.876 353.492,-694.893c-0.033,-131.347 -21.717,-195.241 -89.092,-262.521c-78.879,-78.772 -169.142,-110.68 -280.308,-99.094m-1700.95,102.112l-59.946,58.931l4.421,68.599c2.433,37.728 5.7,69.762 7.258,71.179c1.562,1.421 30.817,-24.718 65.008,-58.086l62.175,-60.669l-2.696,-66.54c-1.479,-36.597 -3.513,-67.863 -4.517,-69.476c-4.704,-7.554 -15.858,1.166 -71.704,56.062m7,12.866l-52.946,52.434l3.842,52.34c2.113,28.789 3.908,52.997 3.992,53.796c0.308,3.061 14.204,-9.836 58.067,-53.882l45.35,-45.541l-2.679,-55.788l-2.675,-55.792l-52.95,52.434m-220.737,165.913l-69.467,65.57l5.704,84.154c3.133,46.285 5.812,84.722 5.95,85.418c1.375,6.955 22.775,-11.304 77.179,-65.848l64.417,-64.583l-0.383,-54.798c-0.479,-68.212 -4.258,-112.496 -9.742,-114.191c-2.304,-0.712 -35.454,28.213 -73.658,64.278m5.425,14.201l-59.929,56.426l2.996,58.34c1.646,32.092 4.237,63.926 5.762,70.744l2.767,12.396l114.267,-115.224l-0.371,-27.399c-0.204,-15.069 -1.542,-46.371 -2.967,-69.554l-2.596,-42.159l-59.929,56.43m362.796,22.909l-51.304,55.859l2.779,76.326c2.912,80.079 4.762,88.675 15.712,72.983c3.688,-5.292 26.567,-34.002 50.846,-63.808l44.138,-54.187l-2.896,-33.27c-1.592,-18.299 -4.037,-50.481 -5.433,-71.515l-2.542,-38.249l-51.3,55.863m1267.704,22.428c-172.483,34.812 -253.938,230.962 -153.346,369.26c92.75,127.515 293.783,123.264 386.242,-8.165c91.062,-129.448 35.933,-301.009 -113.138,-352.069c-30.779,-10.545 -90.096,-15.015 -119.758,-9.026m-14.321,17.512c-167.562,43.87 -226.346,256.098 -103.025,371.945c153.5,144.197 409.213,9.41 378.296,-199.398c-18.1,-122.258 -150.458,-205.222 -275.271,-172.547m-1865.646,112.132c-44.104,38.93 -80.146,71.958 -80.096,73.394c0.05,1.44 2.821,47.529 6.158,102.425c3.337,54.896 6.108,103.772 6.158,108.617c0.179,17.481 13.054,7.644 87.104,-66.54l75.213,-75.347l-0.429,-58.712c-0.612,-84.487 -4.888,-151.826 -9.733,-153.325c-2.304,-0.712 -40.275,30.554 -84.375,69.488m4.896,13.966l-69.625,62.043l2.692,60.669c1.483,33.368 3.896,77.598 5.362,98.284l2.667,37.619l68.317,-68.932l68.317,-68.928l-2.729,-90.025c-1.504,-49.514 -3.325,-90.644 -4.05,-91.399c-0.729,-0.755 -32.654,26.546 -70.95,60.669m1875.333,41.032c-22.329,10.455 -33.125,43.694 -21.221,65.319c19.742,35.861 76.213,30.084 90.017,-9.21c13.175,-37.497 -31.217,-73.703 -68.796,-56.109m3.329,13.195c-13.421,8.83 -19.825,30.409 -12.987,43.768c17.075,33.372 65.908,22.005 65.908,-15.34c0,-27.595 -29.829,-43.619 -52.921,-28.428m-712.325,98.82c-60.238,84.984 -63.775,91.004 -53.479,91.004c5.683,0 106.225,-137.723 106.225,-145.504c0,-13.218 -17.729,5.1 -52.746,54.501m-903.871,83.825c-131.867,148.299 -202.525,227.553 -234.975,263.555l-31.75,35.227l3.396,62.626c1.863,34.444 4.771,79.939 6.458,101.102l3.071,38.476l90.408,-110.888c56.682,-69.534 113.3,-139.115 169.854,-208.741l79.442,-97.854l-2.604,-80.24c-1.433,-44.132 -4.058,-81.708 -5.829,-83.504c-1.771,-1.797 -36.633,34.311 -77.471,80.24m610.092,330.98c-14.35,15.747 -99.308,136.76 -99.308,141.457c0,12.838 14.088,-2.998 61.863,-69.539c31.35,-43.662 49.95,-73.057 47.612,-75.253c-2.342,-2.2 -6.312,-0.892 -10.167,3.335m764.729,229.76c-48.075,10.31 -66.588,25.305 -53.821,43.607c3.654,5.237 8.475,9.523 10.713,9.523c2.238,0 4.071,3.245 4.071,7.21c0,5.887 -6.092,8.341 -33.2,13.355c-98.675,18.263 -158.575,80.271 -124.046,128.407c30.175,42.061 104.171,66.306 202.354,66.306l49.629,0l2.325,16.295c13.867,97.126 322.429,92.984 365.592,-4.904c4.792,-10.866 6.646,-11.829 18.217,-9.48c65.933,13.398 138.108,2.775 169.058,-24.882c18.863,-16.858 20.325,-24.291 8.388,-42.684c-10.742,-16.553 -11.529,-14.882 12.367,-26.256c31.488,-14.987 36.579,-28.546 18.358,-48.888c-16.262,-18.158 -54.408,-34.773 -94.25,-41.055c-18.058,-2.849 -19,-5.965 -6.579,-21.747c26.017,-33.063 -41.521,-63.037 -145.7,-64.662l-51.238,-0.802l-33.137,43.016c-18.225,23.657 -43.692,58.657 -56.596,77.778c-12.9,19.121 -24.846,34.761 -26.537,34.761c-1.696,0 -27.75,-34.268 -57.896,-76.157c-30.15,-41.885 -56.846,-77.332 -59.325,-78.772c-9.425,-5.472 -93.183,-5.448 -118.746,0.031m-1023.171,122.607c-23.754,26.009 -37.438,51.941 -27.325,51.78c5.342,-0.082 40.625,-47.569 40.625,-54.677c0,-6.083 -6.362,-4.697 -13.3,2.896m432.05,64.294c-59.583,38.969 -156.892,102.625 -216.242,141.457l-107.912,70.607l-50.954,72.693c-156.817,223.721 -411.988,590.879 -417.125,600.198c-10.129,18.373 2.833,17.16 35.642,-3.335c16.283,-10.173 30.254,-17.782 31.046,-16.913c0.788,0.873 9.196,75.562 18.683,165.979c43.146,411.181 55.354,528.44 66.533,639.038c6.583,65.151 13.183,119.593 14.663,120.986c1.479,1.39 115.675,0.407 253.763,-2.184c138.088,-2.587 312.946,-5.797 388.571,-7.124c118.633,-2.082 138.221,-3.268 142.767,-8.639c7.617,-9.003 137.929,-177.463 253.083,-327.179c60.743,-78.944 121.617,-157.8 182.621,-236.567l83.275,-107.404l-5.054,-70.689c-6.367,-88.151 -12.791,-176.299 -19.271,-264.443c-32.187,-438.673 -31.996,-435.527 -27.083,-445.656c3.612,-7.445 3.442,-10.713 -0.746,-14.287c-7.963,-6.803 -71.183,-54.07 -230.425,-172.277c-257.5,-191.143 -277.121,-205.406 -282.333,-205.261c-2.842,0.082 -53.917,32.029 -113.5,70.999m31.346,80.565c-66.885,106.491 -133.899,212.91 -201.042,319.257c-63.646,100.801 -115.721,184.517 -115.721,186.039c0,1.519 52.967,32.284 117.708,68.364c64.742,36.077 181.458,101.38 259.375,145.117l141.667,79.52l23.525,-33.685c12.938,-18.526 66.183,-97.09 118.325,-174.59c55.617,-82.661 111.317,-165.273 167.1,-247.836c39.767,-58.81 72.3,-107.588 72.3,-108.402c0,-0.81 -30.467,-24.056 -67.708,-51.651c-37.238,-27.599 -102.396,-76.013 -144.792,-107.592c-126.033,-93.877 -283.825,-210.596 -284.65,-210.557c-0.421,0.02 -39.163,61.229 -86.088,136.016m-102.525,-18.122c-89.183,58.403 -180.658,118.516 -203.271,133.59l-41.117,27.399l-84.025,119.851c-62.152,88.77 -124.141,177.641 -185.967,266.612c-56.067,80.714 -119.192,171.365 -140.275,201.445c-21.083,30.084 -37.575,55.409 -36.646,56.278c0.929,0.873 102.333,-61.303 225.346,-138.165c123.013,-76.862 226.129,-140.639 229.15,-141.731c3.021,-1.088 22.763,-29.564 43.875,-63.28c21.112,-33.716 66.863,-106.218 101.667,-161.114c34.804,-54.896 79.812,-126.231 100.017,-158.523c66.112,-105.651 144.963,-230.75 151.108,-239.741c3.312,-4.842 5.188,-8.807 4.158,-8.807c-1.025,0 -74.833,47.784 -164.021,106.187m-1346.258,12.866c-23.633,9.989 -33.254,40.946 -20.133,64.783c5.942,10.795 5.654,11.723 -7.492,24.268c-17.575,16.768 -57.942,80.072 -56.242,88.193c0.717,3.421 6.625,9.93 13.125,14.463l11.821,8.243l10.033,-11.742c9.092,-10.643 10.038,-10.964 10.054,-3.425c0.05,20.581 -6.604,34.679 -25.592,54.191c-22.75,23.387 -22.817,27.614 -0.671,43.482l14.663,10.506l26.646,-26.162c14.654,-14.388 26.642,-28.71 26.642,-31.826c0,-15.203 12.637,-3.311 21.5,20.224c11.338,30.108 14.913,32.323 37.058,22.941c12.238,-5.186 16.442,-9.269 16.442,-15.978c0,-14.999 -19.429,-60.399 -30.571,-71.433c-7.579,-7.503 -9.858,-13.179 -8.3,-20.647l2.154,-10.298l21.388,13.234c26.171,16.193 25.204,16.189 35.821,0.051c11.879,-18.056 11.308,-19.849 -10.033,-31.599c-14.263,-7.852 -21.55,-15.68 -30.658,-32.926l-11.95,-22.628l11.908,-12.521c34.725,-36.507 -10.017,-93.509 -57.613,-73.394m12.663,9.198c-25.204,3.816 -34.15,37.364 -14.808,55.534c16.333,15.343 31.008,15.492 46.987,0.481c26.017,-24.44 4.675,-61.593 -32.179,-56.015m-26.408,85.88c-6.237,7.449 -7.275,11.124 -3.712,13.191c3.742,2.172 2.896,16.424 -3.508,59.049l-8.446,56.18l-19.712,18.784c-19.154,18.256 -19.504,19.007 -12.271,26.514c7.342,7.621 7.717,7.48 26.858,-10.232c12.75,-11.801 21.492,-24.264 25.483,-36.331c4.458,-13.488 8.188,-18.369 14.038,-18.369c9.725,0 27.763,24.851 34.8,47.948c4.954,16.248 9.979,19.606 20.204,13.5c8.079,-4.822 -9.096,-51.091 -24.521,-66.051c-12.7,-12.322 -12.792,-12.694 -9.858,-42.077c3.083,-30.894 10.854,-39.615 18.575,-20.839c7.546,18.353 39.367,38.523 43.771,27.747c3.033,-7.429 3.917,-6.443 -12.967,-14.502c-8.846,-4.227 -17.779,-14.271 -26.746,-30.072c-14.217,-25.054 -18.571,-28.585 -39.988,-32.393c-11.104,-1.973 -14.808,-0.634 -22,7.954m788.596,46.782c-86.696,115.495 -92.779,124.286 -88.692,128.126c5.342,5.018 2.062,8.768 61.296,-70.036c65.8,-87.532 65.863,-87.634 60.642,-92.538c-2.996,-2.814 -13.238,7.801 -33.246,34.448m-808.379,-25.086c-13.096,15.751 -34.521,55.823 -32.496,60.783c3.379,8.271 34.337,-34.116 37.883,-51.866c2.9,-14.518 1.375,-17.046 -5.387,-8.916m1925.958,353.979c-73.329,108.762 -147.167,218.264 -164.087,243.334c-16.917,25.07 -39.067,58.317 -49.217,73.883c-10.154,15.563 -19.913,29.141 -21.688,30.17c-1.775,1.033 -27.079,-11.453 -56.225,-27.747c-29.15,-16.295 -53.696,-28.969 -54.55,-28.166c-0.854,0.798 0.133,56.035 2.196,122.744c17.05,551.949 25.025,790.144 26.508,791.533c1.283,1.206 85.433,-107.545 367.179,-474.535c36.363,-47.361 81.317,-105.486 99.904,-129.167c18.588,-23.681 35.113,-45.114 36.721,-47.627c1.604,-2.517 -5.492,-118.767 -15.779,-258.333c-10.283,-139.57 -22.513,-307.362 -27.175,-372.869c-4.658,-65.511 -8.921,-119.526 -9.467,-120.039c-0.546,-0.517 -60.992,88.053 -134.321,196.819m-957.721,165.47c-99.958,62.344 -192.079,119.569 -204.717,127.159c-15.633,9.398 -22.971,16.377 -22.971,21.853c0,4.423 9.279,95.599 20.617,202.604c24.038,226.848 40.8,387.786 60.125,577.25c7.633,74.854 14.783,136.952 15.892,137.993c1.108,1.041 89.975,0.07 197.483,-2.157c125.223,-2.566 250.449,-4.965 375.679,-7.198c99.117,-1.73 180.962,-3.879 181.883,-4.775c1.462,-1.429 -9.029,-354.915 -22.3,-751.186c-2.412,-72.118 -4.387,-143.727 -4.383,-159.129l0.004,-28.006l-19.792,-10.76c-37.967,-20.639 -224.579,-124.712 -306.054,-170.684c-45.15,-25.477 -83.808,-46.32 -85.908,-46.32c-2.1,0 -85.6,51.009 -185.558,113.357m-524.129,-6.697c-26.352,35.313 -52.83,70.543 -79.433,105.69c-22.433,29.603 -40.792,55.585 -40.792,57.734c0,11.441 13.888,0.321 35.45,-28.385c133.812,-178.136 139.779,-186.9 127.317,-186.9c-2.146,0 -21.292,23.336 -42.542,51.862m-489.392,632.224c-20.854,27.399 -70.071,90.898 -109.375,141.109c-70.4,89.939 -77.367,100.355 -65.429,97.85c8.346,-1.75 223.138,-275.865 223.138,-284.762c0,-12.451 -14.342,1.139 -48.333,45.803" style="fill:#fbfbfb;stroke:#fbfbfb;stroke-width:4.04px;"/><path d="M1420.454,205.919c-3.058,3.464 -103.133,84.178 -222.383,179.366c-145.43,116.14 -290.712,232.444 -435.846,348.91c-120.467,96.715 -242.808,194.819 -271.875,218.01c-50.192,40.049 -52.85,42.903 -52.858,56.755c-0.008,8.024 7.529,117.628 16.742,243.565c33.325,455.575 53.112,732.629 59.671,835.489c1.725,27.094 -49.896,22.686 438.179,37.407c68.75,2.074 136.746,4.474 151.104,5.331l26.1,1.562l27.833,-33.803c201.742,-245.021 402.492,-491.925 628.433,-772.914c57.25,-71.194 114.542,-142.358 171.875,-213.493c72.017,-89.332 80.071,-100.848 80.071,-114.489l0,-15.167l23.958,0.039c13.179,0.023 46.454,1.894 73.946,4.161c79.842,6.58 101.767,20.788 81.6,52.896c-19.421,30.922 -778.688,979.346 -1010.275,1261.97c-223.829,273.152 -707.921,854.207 -929.375,1115.53c-100.958,119.131 -106.883,126.763 -96.758,124.622c11.65,-2.458 752.496,-887.465 1105.312,-1320.393c165.375,-202.921 901.821,-1122.627 932.663,-1164.747c39.283,-53.643 12,-73.797 -111.058,-82.048c-37.363,-2.505 -68.312,-4.889 -68.779,-5.292c-1.308,-1.123 -13.212,-449.285 -15.875,-597.345c-1.296,-72.118 -3.354,-140.369 -4.571,-151.673l-2.221,-20.549l-295.025,0c-266.067,0 -295.567,0.618 -300.588,6.298m-99.621,94.131c-97.166,77.964 -194.388,155.865 -291.667,233.706c-124.877,99.961 -249.691,199.99 -374.442,300.089l-197.358,158.39l78.608,2.392c43.233,1.315 166.733,4.458 274.442,6.991c210.008,4.932 239.583,6.521 239.583,12.889c0,4.263 -39.9,3.632 -412.5,-6.517c-101.979,-2.779 -186.521,-3.938 -187.867,-2.576c-1.346,1.362 3.692,87.023 11.2,190.356c24.321,334.714 47.408,654.715 56.342,780.871c4.8,67.812 8.992,123.566 9.317,123.894c0.579,0.587 276.362,10.091 483.925,16.682c57.292,1.816 104.688,2.885 105.321,2.368c0.633,-0.517 -0.762,-35.975 -3.1,-78.792c-12.017,-220.17 -30.925,-564.349 -41.887,-762.545c-6.779,-122.552 -11.379,-223.713 -10.217,-224.801c7.525,-7.069 10.987,30.926 22.604,248.004c7.142,133.472 18.467,342.194 25.162,463.826c6.696,121.632 13.433,247.569 14.971,279.861c1.538,32.292 4.004,60.861 5.483,63.491c1.612,2.861 31.721,-30.691 75.171,-83.778l72.479,-88.557l-5.433,-104.101c-2.987,-57.256 -5.646,-107.76 -5.908,-112.238c-0.317,-5.358 57.129,-72.748 168.271,-197.398c92.812,-104.097 173.438,-195.042 179.167,-202.107c16.833,-20.757 19.783,-17.21 22.463,26.992c1.338,22.064 3.863,61.996 5.608,88.734l3.179,48.614l94.713,-117.749l94.717,-117.753l-4.013,-67.856c-2.204,-37.321 -4.042,-78.772 -4.087,-92.111l-0.079,-24.252l51.475,-55.988c55.3,-60.145 68.004,-72.267 71.9,-68.603c1.371,1.284 4.667,33.149 7.325,70.811c2.663,37.662 5.929,69.499 7.263,70.752c1.333,1.256 16.2,-14.713 33.037,-35.482l30.617,-37.76l-5.088,-225.517c-6.738,-298.778 -13.692,-557.977 -15,-559.237c-0.579,-0.556 -37.442,31.063 -81.917,70.271c-77.354,68.196 -167.279,146.796 -547.529,478.602c-306.492,267.442 -302.083,263.751 -302.083,252.854c0,-2.004 36.096,-35.024 80.208,-73.371c222.221,-193.182 569.117,-496.188 731.554,-638.991l113.846,-100.089l-34.679,-2.548c-19.075,-1.401 -146.242,-2.587 -282.596,-2.634l-247.917,-0.09l-114.583,92.002m617.229,317.695l-42.896,38.453l3.887,61.432c2.138,33.791 5.271,62.724 6.963,64.294c1.692,1.573 22.158,-15.649 45.479,-38.269l42.408,-41.13l-1.171,-33.239c-1.792,-50.997 -5.629,-89.994 -8.862,-89.994c-1.6,0 -22.217,17.304 -45.808,38.453m0.946,13.41l-33.3,32.292l3.062,33.27c1.688,18.299 3.217,41.185 3.396,50.856l0.333,17.586l35.271,-33.243l35.267,-33.243l-2.567,-49.905c-1.412,-27.446 -3.829,-49.905 -5.367,-49.905c-1.533,0 -17.779,14.533 -36.096,32.292m1463.446,56.082c-87.767,18.471 -173.575,80.631 -218.983,158.632l-11.579,19.892l-12.783,-20.917c-56.621,-92.648 -148,-146.287 -257.025,-150.874c-156.483,-6.587 -280.242,88.162 -323.117,247.382l-11.596,43.056l-15.979,-0.54c-161.942,-5.46 -252.367,-6.126 -250.85,-1.844c1.204,3.386 20.404,5.21 66.2,6.29c35.479,0.838 94.508,2.716 131.175,4.18l66.667,2.662l0.304,68.995c0.987,221.928 77.817,392.557 314.821,699.171c66.863,86.503 149.458,196.329 149.458,198.737c0,0.853 -15.075,0.728 -33.5,-0.274c-97.483,-5.304 -168.629,29.286 -139.796,67.961c5.629,7.546 4.733,8.075 -21.646,12.776c-93.458,16.655 -155.158,83.767 -126.138,137.206c24.867,45.784 96.292,74.036 196.325,77.649l56.492,2.039l7.267,19.218c34.337,90.824 319.912,87.461 378.65,-4.458c4.838,-7.566 9.058,-14.169 9.388,-14.67c0.325,-0.501 7.033,0.869 14.9,3.045c25.296,6.991 82.438,5.073 112.579,-3.777c54.425,-15.981 80.204,-43.76 68.988,-74.337c-5.608,-15.293 -5.529,-15.563 5.825,-19.982c59.767,-23.254 28.346,-82.389 -55.542,-104.531c-19.292,-5.092 -23.508,-7.601 -21.058,-12.533c5.596,-11.253 3.008,-31.309 -5.125,-39.768c-22.221,-23.097 -95.817,-42.578 -161.196,-42.672l-36.504,-0.051l29.958,-36.206c37.933,-45.842 66.625,-77.046 154.2,-167.686c219.471,-227.157 318.729,-396.749 349.35,-596.879l4.842,-31.646l23.579,3.292c12.967,1.812 58.912,8.689 102.1,15.289c43.188,6.599 79.625,10.96 80.975,9.695c7.429,-6.983 -20.796,-12.834 -142.562,-29.571c-31.938,-4.388 -59.042,-8.897 -60.238,-10.016c-1.192,-1.123 -1.679,-24.424 -1.079,-51.788c3.917,-178.798 -67.5,-302.191 -210.492,-363.69c-52.55,-22.6 -147.421,-31.047 -207.254,-18.455m28.796,7.738c-4.583,0.998 -18.646,3.742 -31.25,6.086c-78.446,14.615 -164.212,79.618 -212.458,161.028c-15.325,25.861 -15.871,25.806 -33.633,-3.362c-62.892,-103.259 -166.242,-159.212 -282.929,-153.172c-190.412,9.856 -314.417,182.336 -292.621,407.016c20.367,209.966 92.317,360.074 303.479,633.136c77.479,100.19 146.883,193.139 197.279,264.205c21.371,30.139 47.25,65.918 57.512,79.512l18.65,24.714l9.037,-14.929c49.892,-82.401 154.825,-207.696 299.679,-357.831c244.787,-253.711 341.329,-445.441 341.746,-678.689c0.146,-81.281 -4.275,-115.385 -21.2,-163.49c-30.192,-85.814 -122.896,-169.373 -217.875,-196.384c-22.262,-6.329 -117.167,-11.825 -135.417,-7.84m-1694.979,102.707l-61.542,57.91l4.237,58.536c2.329,32.194 4.267,63.507 4.304,69.586c0.108,18.584 9.879,11.703 71.275,-50.191l58.242,-58.712l-2.354,-41.098c-3.621,-63.241 -6.846,-93.939 -9.867,-93.939c-1.517,0 -30.45,26.06 -64.296,57.91m4.029,11.836l-53.454,50.359l3.004,55.526c1.65,30.538 4.271,56.266 5.825,57.17c1.554,0.9 25.667,-21.594 53.575,-49.995l50.75,-51.631l-0.413,-23.512c-0.229,-12.928 -1.633,-38.081 -3.125,-55.89l-2.712,-32.382l-53.45,50.355m-219.196,170.719l-68.383,64.325l5.054,81.434c2.779,44.786 6.596,82.882 8.483,84.655c1.887,1.773 33.967,-27.231 71.283,-64.45l67.85,-67.679l-2.679,-60.755c-1.479,-33.419 -2.692,-70.008 -2.7,-81.308c-0.008,-13.923 -1.708,-20.549 -5.267,-20.549c-2.892,0 -36.029,28.949 -73.642,64.329m3.367,11.985l-60.946,58.724l3.458,50.884c1.904,27.986 3.612,60.571 3.8,72.412l0.342,21.528l60.1,-58.712l60.104,-58.712l-0.071,-58.712c-0.042,-32.292 -1.371,-64.885 -2.958,-72.423l-2.883,-13.715l-60.946,58.728m360.958,23.868l-52.883,57.667l2.317,19.907c1.271,10.948 3.55,47.592 5.058,81.43l2.742,61.526l54.217,-66.842l54.221,-66.846l-4.896,-70.85c-2.696,-38.965 -5.571,-71.48 -6.396,-72.255c-0.821,-0.775 -25.292,24.546 -54.379,56.262m1281.033,21.293c-136.062,19.41 -231.917,153.994 -201.475,282.867c41.129,174.105 250.958,236.798 387.013,115.632c172.492,-153.622 43.279,-431.143 -185.538,-398.499m-10.213,12.271c-100.9,17.946 -185.112,117.346 -185.354,218.785c-0.471,195.954 232.854,291.604 378.625,155.215c162.225,-151.786 27.133,-413.196 -193.271,-374m-1879.167,117.702c-41.25,36.953 -75.708,70.791 -76.571,75.198c-3.088,15.711 9.067,213.763 13.263,216.202c2.317,1.346 11.783,-5.315 21.033,-14.803c9.254,-9.488 43.821,-44.465 76.817,-77.727l59.992,-60.477l-2.725,-92.174c-2.933,-99.458 -4.442,-113.78 -11.929,-113.553c-2.683,0.082 -38.629,30.382 -79.879,67.335m10.417,5.167c-35.521,31.485 -67.8,60.16 -71.729,63.73c-7.225,6.556 -5.833,77.829 3.442,176.426l2.729,29.027l28.533,-29.027c22.913,-23.349 45.786,-46.733 68.621,-70.149l40.088,-41.118l-0.829,-56.735c-0.454,-31.204 -2.054,-73.085 -3.55,-93.067l-2.721,-36.327l-64.583,57.24m1871.233,49.725c-36.083,17.422 -35.046,67.452 1.742,83.931c29.646,13.281 64.471,-8.92 64.508,-41.13c0.042,-34.609 -35.567,-57.616 -66.25,-42.801m-3.775,15.786c-23.488,23.485 -10.425,60.998 21.358,61.335c17.075,0.18 27.758,-6.541 34.508,-21.716c15.079,-33.908 -29.771,-65.715 -55.867,-39.619m-714.333,107.651c-44.6,63.307 -56.55,83.931 -44.617,77.003c6.196,-3.597 96.462,-131.112 98.829,-139.61c4.933,-17.719 -8.792,-1.867 -54.213,62.607m-899.067,71.672c-55.458,62.354 -111.013,124.63 -166.667,186.83c-46.921,52.406 -88.529,99.247 -92.471,104.089c-6.704,8.239 -6.779,15.269 -1.196,110.207c3.283,55.773 6.038,102.038 6.121,102.813c0.212,1.926 49.279,-57.968 208.683,-254.728l135.608,-167.392l-1.617,-38.19c-0.892,-21.007 -2.854,-60.012 -4.363,-86.683l-2.742,-48.484l-81.358,91.54m565.725,395.986c-49.754,69.374 -56.979,81.101 -49.975,81.101c4.654,0 105.192,-138.11 105.192,-144.498c0,-11.069 -10.275,0.732 -55.217,63.397m803.133,165.345c-11.458,2.99 -22.096,5.515 -23.638,5.609c-6.562,0.403 -28.446,20.968 -28.446,26.726c0,3.46 4.892,11.085 10.871,16.948c11.942,11.707 10.396,19.124 -3.992,19.124c-5.113,0 -20.471,2.724 -34.129,6.055c-116.963,28.522 -157.4,109.956 -78.217,157.509c43.146,25.912 132.475,43.322 193.412,37.697l27.529,-2.54l2.283,19.042c7.088,59.162 132.933,88.957 253.55,60.027c59.4,-14.247 102.904,-39.302 112.775,-64.951c4.613,-11.977 6.692,-13.484 15.821,-11.465c61.383,13.586 100.079,11.699 143.533,-6.987c40.883,-17.582 52.321,-36.91 36.771,-62.149c-7,-11.359 -6.979,-12.009 0.504,-16.259c36.721,-20.858 42.683,-27.567 38.483,-43.294c-5.954,-22.291 -46.992,-45.929 -94.433,-54.399c-26.371,-4.709 -29.771,-8.901 -16.429,-20.244c37.333,-31.736 -45.546,-68.662 -153.492,-68.384l-44.425,0.114l-18.75,23.99c-10.313,13.195 -33.15,44.406 -50.746,69.363c-45.8,64.943 -43.246,62.157 -50.529,55.158c-3.358,-3.229 -28.912,-37.576 -56.787,-76.326c-39.929,-55.51 -53.062,-70.979 -61.933,-72.928c-21.05,-4.623 -98.388,-2.963 -119.588,2.564m-1026.954,138.686c-19.567,27.066 -23.662,35.403 -17.396,35.403c2.45,0 11.7,-10.126 20.554,-22.506c22.067,-30.855 22.375,-31.446 17.842,-34.077c-2.204,-1.28 -11.654,8.251 -21,21.179m337.567,118.943l-217.729,142.252l-153.95,220.785c-84.671,121.432 -190.413,273.074 -234.983,336.984c-71.775,102.922 -87.396,128.435 -78.637,128.435c1.317,0 14.912,-7.578 30.208,-16.839c15.296,-9.261 29.875,-18.009 32.392,-19.438c3.15,-1.785 6.817,17.226 11.733,60.873c9.579,85.027 43.471,407.881 69.096,658.214c11.45,111.831 22.321,204.741 24.158,206.467c3.217,3.022 624.508,-6.372 728.912,-11.022l50.979,-2.27l43.196,-55.385c23.758,-30.46 108.8,-140.811 188.983,-245.221c80.183,-104.41 178.037,-231.228 217.45,-281.818l71.658,-91.982l-2.308,-29.356c-1.267,-16.146 -4.108,-54.015 -6.308,-84.154c-5.621,-76.995 -32.1,-440.4 -39.783,-546.023c-7.671,-105.4 -7.921,-113.009 -4.075,-124.043c2.654,-7.617 -10.512,-18.663 -117.225,-98.362c-207.025,-154.62 -390.942,-290.3 -393.542,-290.324c-1.371,-0.012 -100.471,63.988 -220.225,142.228m137.263,7.464c-98,155.665 -196.608,311.847 -268.75,425.663c-27.975,44.132 -50.133,81.477 -49.246,82.992c0.892,1.511 52.658,31.254 115.038,66.094c62.379,34.836 178.908,100.151 258.954,145.144c116.558,65.519 146.525,80.804 150.496,76.776c2.729,-2.771 49.921,-71.965 104.871,-153.771c54.95,-81.806 138.787,-206.354 186.304,-276.773c47.521,-70.419 85.112,-129.996 83.533,-132.392c-4.958,-7.543 -489.587,-367.792 -494.767,-367.792c-1.121,0 -40.012,60.329 -86.433,134.059m-141.562,7.895l-205.104,134.13l-131.854,188.748c-153.075,219.125 -292.617,419.118 -312.15,447.379c-17.675,25.575 -36.675,36.362 232.904,-132.235l228.354,-142.815l49.496,-78.839c40.734,-64.807 81.537,-129.575 122.408,-194.306c47.731,-75.628 95.381,-151.302 142.95,-227.02c38.521,-61.354 72.783,-115.518 76.133,-120.36c3.35,-4.842 5.163,-8.807 4.029,-8.807c-1.133,0 -94.358,60.356 -207.167,134.126m-1311.658,-6.678c-21.012,13.825 -26.712,38.143 -14.108,60.215l7.625,13.359l-13.792,11.378c-16.275,13.422 -61.55,82.96 -58.646,90.068c1.104,2.705 7.15,7.503 13.438,10.666c11.008,5.531 11.9,5.237 23.979,-7.891c6.904,-7.503 11.358,-10.416 9.908,-6.47c-1.454,3.942 -2.642,13.958 -2.642,22.256c0,12.678 -3.646,19.011 -22.842,39.689l-22.837,24.6l13.242,12.831c7.279,7.061 15.4,12.834 18.038,12.834c7.796,0 51.233,-45.067 54.221,-56.254c4.825,-18.052 8.204,-14.521 28.558,29.834c5.679,12.38 11.446,22.506 12.808,22.506c7.312,0 35.479,-16.549 35.479,-20.847c0,-12.294 -19.004,-56.775 -29.796,-69.742c-11.162,-13.414 -15.021,-26.483 -9.383,-31.783c1.371,-1.288 11.421,2.822 22.337,9.132c24.554,14.193 26.708,14.201 37.392,0.106c11.642,-15.359 11.3,-16.279 -11.013,-29.732c-13.833,-8.341 -22.817,-17.872 -31.008,-32.891l-11.529,-21.148l10.083,-11.257c28.621,-31.955 9.238,-77.57 -32.967,-77.57c-9.496,0 -21.442,2.748 -26.546,6.11m2.942,13.159c-24.408,22.929 -10.2,59.014 23.238,59.014c33.438,0 47.646,-36.084 23.237,-59.014c-7.342,-6.897 -16.571,-11.441 -23.237,-11.441c-6.667,0 -15.896,4.544 -23.238,11.441m-17.404,80.639c-31.175,33.732 -58.188,84.056 -45.121,84.056c6.462,0 35.179,-44.148 37.521,-57.679c1.342,-7.75 5.062,-14.913 8.267,-15.915c4.629,-1.448 5.25,1.307 3.025,13.379c-1.546,8.361 -5.717,34.578 -9.275,58.258c-6.458,42.993 -6.496,43.083 -25.817,61.667l-19.354,18.612l19.058,17.574l18.375,-19.571c10.108,-10.764 21.379,-27.939 25.046,-38.163c3.667,-10.224 8.229,-18.592 10.129,-18.592c7.317,0 25.046,24.659 33.633,46.782c8.563,22.068 9.425,22.925 18.938,18.854c5.483,-2.348 9.842,-6.184 9.692,-8.533c-0.904,-13.946 -16.942,-48.79 -28.325,-61.526c-12.9,-14.435 -13.233,-15.731 -10.525,-40.582c3.371,-30.898 6.479,-33.619 18.146,-15.887c9.754,14.827 35.013,31.571 41.738,27.665c8.092,-4.697 4.162,-12.478 -11.054,-21.892c-9.629,-5.957 -20.142,-18.158 -28.371,-32.922c-11.408,-20.463 -14.925,-23.735 -27.554,-25.665c-7.963,-1.217 -16.292,-3.253 -18.504,-4.529c-2.212,-1.276 -11.067,5.3 -19.667,14.608m763.713,85.712c-58.225,78.635 -62.008,84.455 -54.925,84.455c3.808,0 117.338,-147.305 120.742,-156.664c0.767,-2.098 -1.108,-3.758 -4.167,-3.691c-3.054,0.07 -30.8,34.225 -61.65,75.899m1213.842,186.626c-145.208,214.839 -242.767,359.706 -270.438,401.595c-15.938,24.123 -30.983,43.936 -33.438,44.034c-2.454,0.098 -27.767,-12.905 -56.25,-28.898l-51.787,-29.082l-1.254,17.019c-0.692,9.359 2.537,135.613 7.175,280.562c4.638,144.952 10.533,338.405 13.096,429.898c2.567,91.493 5.9,172.813 7.408,180.708l2.742,14.361l66.946,-86.773c43.914,-56.94 87.778,-113.915 131.592,-170.923l157.867,-205.492c51.271,-66.736 106.671,-138.349 123.113,-159.145c21.808,-27.579 29.433,-40.28 28.196,-46.97c-1.854,-10.024 -29.533,-387.707 -43.275,-590.413c-4.742,-69.965 -9.946,-132.31 -11.562,-138.549c-2.725,-10.517 -7.8,-4.145 -70.129,88.068m-933.746,207.759c-52.158,32.421 -145.958,90.71 -208.442,129.531c-112.85,70.11 -113.596,70.666 -111.433,82.702c2.933,16.295 60.296,563.993 83.671,798.861c6.217,62.431 11.896,114.172 12.625,114.982c0.729,0.81 103.121,-0.501 227.533,-2.916c124.417,-2.415 295.404,-5.562 379.967,-6.995l153.758,-2.607l-2.642,-70.803c-1.454,-38.942 -7.354,-227.564 -13.117,-419.161c-5.758,-191.597 -11.887,-372.055 -13.613,-401.016l-3.142,-52.653l-85.417,-47.479c-54.205,-30.141 -108.372,-60.342 -162.5,-90.605c-39.91,-22.33 -79.827,-44.65 -119.75,-66.959l-42.671,-23.829l-94.829,58.947m-635.154,80.741c-31.342,42.386 -66.625,89.841 -78.408,105.447c-14.167,18.764 -19.317,28.378 -15.208,28.378c6.263,0 161.021,-200.819 161.021,-208.941c0,-11.566 -18.812,9.398 -67.404,75.116m-486.033,627.95c-36.661,47.388 -73.439,94.696 -110.333,141.923c-45.288,57.882 -58.254,78.404 -44.492,70.411c4.65,-2.697 206.579,-260.799 217.942,-278.569c1.625,-2.54 1.204,-5.64 -0.942,-6.885c-2.142,-1.245 -30.121,31.658 -62.175,73.12" style="fill:#f0f0f0;stroke:#f0f0f0;stroke-width:4.04px;"/><path d="M1224.675,365.201c-109.79,87.778 -219.512,175.631 -329.167,263.559c-95.703,76.796 -191.428,153.568 -287.175,230.316c-90.521,72.56 -166.092,133.265 -167.933,134.905c-1.838,1.636 2.408,82.056 9.442,178.712c17.2,236.32 39.146,540.472 54.621,756.901c7,97.904 13.267,178.516 13.925,179.135c1.108,1.041 324.567,12.666 523.85,18.831l85.992,2.658l30.933,-36.668c52.463,-62.18 233.688,-283.861 354.763,-433.953c63.383,-78.576 123.333,-152.554 133.225,-164.394c9.892,-11.84 82.392,-101.67 161.108,-199.621c78.721,-97.951 162.504,-202.024 186.183,-231.275c38.142,-47.111 43.058,-54.982 43.058,-68.955l0,-15.77l30.208,1.55c155.737,7.993 180.083,20.401 141.454,72.102c-17.858,23.9 -660.233,828.279 -784.321,982.121c-170.896,211.876 -305.258,375.21 -618.204,751.515c-193.2,232.316 -494.104,591.54 -592.996,707.935c-31.108,36.613 -41.392,51.972 -30.6,45.705c14.05,-8.157 838.358,-996.243 1129.95,-1354.461c222.829,-273.735 904.217,-1126.948 913.571,-1143.939c23.713,-43.075 -8.992,-61.245 -118.229,-65.687c-30.938,-1.26 -60.162,-3.022 -64.95,-3.918c-8.562,-1.601 -8.742,-3.797 -11.508,-143.598c-5.525,-279.243 -15.092,-622.028 -17.458,-625.625c-1.458,-2.215 -116.817,-3.578 -292.788,-3.452l-290.379,0.211l-206.575,165.161m21.158,-6.443c-104.271,83.179 -253.333,202.451 -331.25,265.054c-218.562,175.596 -423.425,339.689 -441.512,353.635c-8.996,6.94 -15.462,13.457 -14.367,14.486c1.096,1.026 104.117,4.572 228.938,7.871c308.475,8.161 362.358,10.298 362.358,14.373c0,1.926 -1.408,3.488 -3.125,3.472c-24.637,-0.219 -469.321,-12.114 -525.408,-14.056l-76.45,-2.646l2.637,28.914c1.45,15.903 7.308,94.965 13.017,175.694c5.708,80.729 16.862,236.61 24.783,346.402c8.419,116.766 16.742,233.538 24.967,350.316c5.813,82.882 11.6,161.537 12.863,174.79l2.296,24.092l46.583,2.337c25.625,1.284 102.837,4.141 171.587,6.353c68.75,2.208 172.675,5.73 230.946,7.82c58.271,2.09 114.317,3.801 124.546,3.801l18.596,0l-2.85,-55.777c-1.562,-30.675 -8.312,-155.294 -14.996,-276.926c-39.888,-725.881 -40.208,-732.324 -36.733,-734.34c5.65,-3.28 5.633,-3.519 22.171,311.613c11.025,210.084 28.604,531.219 35.446,647.501c2.267,38.593 4.208,78.224 4.313,88.068l0.188,17.903l15.438,-17.187c8.492,-9.453 43.079,-50.845 76.867,-91.982l61.425,-74.795l-1.996,-19.571c-1.096,-10.764 -4.15,-61.335 -6.788,-112.379l-4.796,-92.812l24.783,-26.569c13.629,-14.615 42.688,-46.829 64.567,-71.586c165.317,-187.037 267.142,-299.612 271.921,-300.614c4.479,-0.943 6.171,12.286 8.271,64.583c1.454,36.171 3.7,75.249 4.992,86.839c2.958,26.546 -5.492,34.801 105.733,-103.271l88.288,-109.596l-2.542,-50.884c-1.4,-27.986 -3.554,-69.378 -4.787,-91.982l-2.246,-41.098l59.179,-63.828c32.546,-35.106 60.704,-62.391 62.575,-60.634c1.871,1.757 5.708,35.356 8.529,74.67c2.821,39.31 6.446,70.999 8.05,70.419c2.654,-0.963 46.121,-52.767 59.996,-71.511c4.962,-6.701 4.358,-64.446 -4.183,-401.199c-5.492,-216.354 -10.058,-393.907 -10.15,-394.565c-0.092,-0.658 -56.521,48.469 -125.4,109.169c-68.879,60.701 -140.771,123.765 -159.758,140.146c-30.222,26.157 -60.367,52.394 -90.433,78.709c-111,97.126 -469.758,409.85 -510.937,445.371c-23.171,19.99 -43.171,34.761 -44.446,32.824c-1.275,-1.938 27.121,-28.863 63.1,-59.832c131.133,-112.868 685.721,-597.282 789.583,-689.68c38.383,-34.147 69.792,-63.691 69.792,-65.652c0,-2.106 -115.35,-3.546 -282.292,-3.527l-282.292,0.039l-189.583,151.235m692.821,260.717l-42.317,40.057l4.096,60.513c2.254,33.282 5.071,61.429 6.258,62.548c1.192,1.116 20.85,-16.428 43.683,-38.989l41.521,-41.016l-2.567,-58.712c-1.408,-32.292 -3.867,-60.004 -5.462,-61.585c-1.596,-1.581 -21.942,15.152 -45.213,37.184m2.167,9.601l-36.258,34.37l3.667,48.316c2.017,26.577 4.517,49.115 5.554,50.093c1.037,0.975 17.083,-12.842 35.658,-30.706l33.775,-32.476l-0.458,-25.442c-0.254,-13.993 -1.633,-37.384 -3.067,-51.984l-2.608,-26.542l-36.262,34.37m1482.246,56.074c-95.171,14.04 -181.425,71.488 -236.662,157.63l-14.333,22.354l-17.7,-25.708c-68.108,-98.93 -154.154,-144.71 -271.037,-144.193c-149.775,0.658 -267.675,98.621 -305.083,253.488l-9.342,38.687l-37.379,-2.493c-78.071,-5.206 -231.529,-7.668 -231.529,-3.715c0,2.415 35.504,4.901 92.708,6.494c50.987,1.417 111.225,3.738 133.854,5.159l41.142,2.583l-2.688,31.669c-4.854,57.244 8.225,161.865 30.463,243.694c34.279,126.11 112.625,266.514 245.262,439.531c81.613,106.457 142.792,186.967 168.467,221.693l23.442,31.708l-48.617,-0.309c-65.292,-0.415 -105.075,8.983 -125.579,29.654c-9.946,10.028 -11.067,27.54 -2.204,34.448c10.171,7.93 7.588,9.918 -19.792,15.218c-36.671,7.1 -82.458,27.994 -102.4,46.727c-87.104,81.825 12.742,168.989 193.571,168.989l39.038,0l0,11.605c0,7.429 4.708,16.643 13.071,25.591c73.483,78.623 317.596,58.356 372.346,-30.91c3.612,-5.887 6.667,-6.251 22.917,-2.72c61.446,13.343 149.367,-7.535 172.721,-41.016c7.183,-10.298 7.421,-30.804 0.525,-45.478c-2.396,-5.096 0.754,-8.455 13.771,-14.694c51.871,-24.859 23.546,-74.921 -55.767,-98.57c-16.042,-4.783 -29.671,-9.01 -30.283,-9.394c-0.613,-0.384 1.562,-5.55 4.837,-11.48c12.738,-23.062 -8.958,-45.134 -59.462,-60.489c-34.5,-10.49 -91.908,-17.089 -119.992,-13.793c-13.85,1.628 -22.183,1.135 -22.183,-1.307c0,-8.685 86.387,-106.296 168.804,-190.74c226.65,-232.222 334.788,-411.502 360.45,-597.564c2.771,-20.091 5.712,-38.758 6.533,-41.482c1.683,-5.558 -5.238,-6.298 122.442,13.081c46.921,7.12 86.142,12.169 87.154,11.218c5.562,-5.229 -7.333,-7.629 -178.783,-33.294l-27.154,-4.063l-0.354,-65.362c-0.958,-176.731 -62.287,-281.196 -204.675,-348.636c-46.421,-21.99 -131.117,-32.573 -190.517,-23.81m-26.571,15.285c-81.479,18.796 -164.829,82.044 -206.658,156.824c-8.413,15.034 -16,27.336 -16.863,27.336c-0.867,0 -10.608,-14.408 -21.65,-32.014c-84.475,-134.717 -250.371,-185.98 -390.908,-120.794c-170.338,79.011 -226.667,282.057 -151.846,547.318c36.262,128.564 117.896,269.078 268.808,462.687c64.167,82.322 161.242,212.694 226.787,304.571c26.354,36.942 48.854,67.143 50,67.112c1.146,-0.035 13.95,-17.618 28.45,-39.071c57.829,-85.559 149.942,-195.171 256.488,-305.213c149.55,-154.452 216.029,-240.512 281.2,-364.015c108.458,-205.547 119.508,-452.823 25.833,-578.127c-46.988,-62.853 -125.554,-114.673 -194.742,-128.443c-39.767,-7.914 -116.596,-7.01 -154.9,1.828m-1661.217,101.067l-58.471,57.651l4.304,65.632c2.367,36.1 5.996,66.043 8.063,66.54c2.067,0.501 30.521,-25.692 63.229,-58.199c58.2,-57.847 59.433,-59.436 57.779,-74.369c-0.929,-8.396 -2.854,-37.721 -4.275,-65.167c-1.742,-33.654 -4.142,-49.878 -7.371,-49.823c-2.633,0.047 -31.1,26.029 -63.258,57.734m4.304,6.987c-29.792,29.689 -53.838,55.874 -53.438,58.192c0.4,2.317 2.037,28.875 3.638,59.014l2.908,54.798l107.125,-105.682l-0.275,-41.098c-0.15,-22.604 -1.513,-49.674 -3.033,-60.153l-2.758,-19.054l-54.167,53.984m-217.996,171.295l-67.9,63.875l5.2,83.046c4.117,65.801 6.367,82.819 10.821,81.931c3.092,-0.618 34.567,-30.186 69.946,-65.707l64.317,-64.583l-2.15,-60.669c-2.5,-70.392 -5.417,-101.768 -9.458,-101.768c-1.579,0 -33.429,28.742 -70.775,63.875m1.729,10.247l-61.742,58.466l2.492,34.495c1.371,18.972 3.683,51.745 5.138,72.827c1.454,21.082 4.163,37.815 6.017,37.184c1.854,-0.63 29.804,-27.567 62.112,-59.859l58.746,-58.712l-2.171,-19.571c-1.192,-10.764 -2.188,-42.907 -2.204,-71.433c-0.021,-28.522 -1.525,-51.862 -3.342,-51.862c-1.821,0 -31.092,26.311 -65.046,58.466m382.933,1.131c-18.333,19.821 -42.421,46.242 -53.525,58.72l-20.196,22.682l4.721,80.991c2.596,44.543 5.3,81.532 6.008,82.201c0.713,0.665 9.375,-8.936 19.25,-21.344c18.002,-22.554 36.046,-45.077 54.133,-67.57l36.179,-45.013l-3.6,-54.798c-1.979,-30.139 -4.954,-63.147 -6.617,-73.351l-3.021,-18.553l-33.333,36.034m1235.417,52.32c-106.496,26.573 -179.167,119.303 -179.167,228.613c0,202.682 242.746,300.418 393.771,158.542c134.292,-126.149 77.792,-343.849 -100.567,-387.488c-30.083,-7.362 -83.837,-7.206 -114.037,0.333m5.617,7.151c-142.375,32.44 -219.213,193.727 -153.117,321.382c106.408,205.504 426.175,121.691 426.604,-111.819c0.258,-139.66 -132.804,-241.62 -273.487,-209.563m-1869.513,118.117l-77.771,68.877l0.233,20.17c0.525,45.721 11.083,194.541 13.996,197.273c3.158,2.967 29.188,-21.532 111.792,-105.224l44.771,-45.361l-4.062,-101.325c-2.237,-55.733 -4.104,-101.772 -4.146,-102.308c-0.446,-5.315 -18.104,8.822 -84.812,67.899m2.304,9.053c-57.621,51.209 -71.75,65.801 -71.783,74.134c-0.075,20.17 8.763,167.118 10.8,179.526c2.05,12.494 2.592,12.056 72.446,-58.712l70.375,-71.3l-2.279,-80.24c-1.25,-44.132 -3.525,-86.299 -5.046,-93.701l-2.771,-13.465l-71.742,63.757m1879.083,45.885c-24.033,11.398 -32.771,40.093 -19.533,64.141c12.796,23.242 46.904,27.192 69.683,8.071c38.433,-32.256 -4.392,-93.92 -50.15,-72.212m3.8,6.807c-22.504,11.926 -28.325,43.177 -11.062,59.389c22.792,21.414 64.771,4.807 64.771,-25.618c0,-23.974 -33.021,-44.739 -53.708,-33.771m-711.429,102.331c-52.458,74.005 -61.479,88.006 -56.696,88.006c5.629,0 101.758,-136.811 99.871,-142.138c-0.883,-2.482 -20.312,21.88 -43.175,54.133m-848.733,14.384c-10.417,11.429 -88.688,99.024 -173.938,194.658l-155,173.878l4.763,78.584c2.621,43.22 4.754,89.595 4.737,103.048c-0.038,37.341 -23.796,62.665 199.017,-212.131c71.658,-88.381 134.983,-167.009 140.717,-174.727l10.429,-14.036l-4.567,-83.774c-2.508,-46.077 -5.158,-84.342 -5.892,-85.027c-0.729,-0.685 -9.85,8.102 -20.267,19.528m509.704,460.17c-17.292,24.287 -34.572,48.582 -51.838,72.885c-5.95,8.396 -6.5,10.92 -2.083,9.547c5.954,-1.851 103.921,-134.643 103.921,-140.866c0,-9.41 -10.2,2.513 -50,58.434m833.333,163.803c-70.725,7.597 -103.088,32.311 -76.975,58.779c11.771,11.93 8.421,16.968 -11.35,17.073c-36.683,0.196 -108.492,33.227 -129.758,59.687c-58.075,72.271 29.754,139.097 186.833,142.15l58.333,1.135l2.242,15.097c14.475,97.564 325.275,93.082 369.129,-5.319l5.517,-12.373l24.054,5.957c91,22.534 198.808,-27.172 164.771,-75.97c-3.963,-5.679 -5.367,-10.932 -3.125,-11.672c15.742,-5.194 38.292,-20.792 42.792,-29.595c12.763,-24.988 -28.933,-58.419 -87.133,-69.867c-12.325,-2.427 -24.742,-5.03 -27.592,-5.785c-3.579,-0.951 -2.096,-5.648 4.817,-15.214c13.133,-18.181 10.021,-27.622 -13.792,-41.834c-34.838,-20.796 -101.167,-32.491 -158.621,-27.967l-29.633,2.337l-24.275,31.708c-20.588,26.894 -65.65,89.603 -82.3,114.528c-5.992,8.971 -1.912,13.625 -67.917,-77.477c-34.208,-47.22 -53,-69.723 -59.471,-71.222c-14.129,-3.268 -69.875,-5.946 -86.546,-4.157m-552.083,153.52c-25.208,16.749 -122.467,80.424 -216.129,141.504c-112.217,73.175 -174.033,115.925 -181.25,125.343c-6.025,7.864 -85.954,122.082 -177.621,253.824c-91.667,131.742 -193.388,277.657 -226.042,324.259c-72.817,103.909 -73.629,106.825 -20.425,73.296c15.642,-9.856 29.337,-17.081 30.429,-16.056c2.425,2.278 9.821,69.21 47.233,427.354c34.613,331.367 50.017,482.899 50.038,492.203c0.021,9.484 134.842,8.826 667.342,-3.253l115.242,-2.615l18.429,-23.974c10.133,-13.191 65.912,-85.626 123.954,-160.973c58.037,-75.347 124.383,-161.654 147.433,-191.793c23.05,-30.139 77.463,-100.593 120.921,-156.566c43.454,-55.972 85.996,-111.455 94.533,-123.295l15.529,-21.528l-11.938,-156.566c-30.637,-401.681 -44.812,-614.716 -41.142,-618.239c10.213,-9.793 26.017,2.873 -273.204,-218.879c-98.542,-73.026 -191.562,-142.205 -206.713,-153.732c-15.154,-11.527 -28.279,-20.913 -29.167,-20.862c-0.892,0.051 -22.246,13.797 -47.454,30.546m-503.196,-14.263c-17.829,22.498 -24.725,34.108 -23.05,38.824c0.892,2.509 9.763,-7.175 19.713,-21.52c18.825,-27.145 21.3,-39.963 3.337,-17.304m469.787,127.617c-66.88,106.314 -133.851,212.578 -200.913,318.791c-64.883,102.762 -118.883,189.069 -119.992,191.793c-1.283,3.147 36.379,26.522 103.229,64.071c297.646,167.181 415.171,232.488 418.375,232.48c1.95,-0.004 9.1,-8.368 15.896,-18.592c19.046,-28.64 220.271,-327.426 296.596,-440.38c37.471,-55.463 68.133,-103.067 68.133,-105.788c0,-2.724 -25.779,-24.244 -57.292,-47.823c-112.579,-84.248 -304.221,-226.445 -367.708,-272.843c-35.521,-25.959 -66.567,-48.653 -68.988,-50.43c-2.838,-2.086 -33.921,43.721 -87.338,128.72m-125.933,0.399c-101.383,66.341 -193.975,127.484 -205.758,135.872c-22.825,16.255 -22.546,15.872 -262.038,360.312c-57.117,82.146 -127.425,183.041 -156.246,224.21c-28.817,41.173 -53.513,77.586 -54.875,80.921c-1.362,3.335 90.129,-51.808 203.308,-122.536c113.179,-70.725 220.121,-137.304 237.646,-147.955l31.862,-19.355l51.737,-82.318c28.454,-45.275 115.533,-183.597 193.512,-307.381c157.158,-249.472 153.033,-242.732 148.463,-242.536c-1.8,0.082 -86.225,54.426 -187.613,120.767m-1325.071,5.617c-38.117,19.888 -26.842,75.743 16.9,83.739c16.083,2.94 18.621,5.167 31.129,27.317c9.225,16.338 18.633,26.949 29.167,32.898c5.584,3.137 11.148,6.305 16.692,9.504c3.867,2.431 -5.367,13.578 -11.254,13.578c-9.154,0 -41.971,-26.252 -41.971,-33.576c0,-11.688 -7.529,-4.893 -10.096,9.112c-1.522,8.299 -3.131,16.585 -4.825,24.855c-1.596,7.609 1.379,14.122 11.796,25.837c20.325,22.855 32.712,62.708 21.813,70.192c-11.554,7.938 -15.129,5.265 -23.354,-17.461c-8.558,-23.653 -22.629,-43.733 -30.642,-43.733c-3.067,0 -8.596,8.333 -12.292,18.514c-6.575,18.134 -36.758,51.941 -46.371,51.941c-2.604,0 -7.946,-3.331 -11.863,-7.398c-6.817,-7.077 -6.233,-8.228 13.417,-26.42c19.208,-17.782 20.75,-20.682 23.613,-44.465c1.688,-13.993 5.513,-38.652 8.504,-54.798c2.992,-16.146 3.913,-30.847 2.054,-32.667c-1.862,-1.82 -4.633,3.613 -6.154,12.075c-2.679,14.905 -32.587,59.734 -39.85,59.734c-14.221,0 1.846,-33.219 36.546,-75.566c10.246,-12.502 17.767,-23.532 16.717,-24.518c-5.15,-4.838 -26.15,18.197 -49.025,53.765l-25.413,39.517l9.271,9.273c12.671,12.67 18.192,11.711 31.025,-5.405l11,-14.678l-2.529,25.152c-2.333,23.148 -4.204,26.957 -23.496,47.792c-22.833,24.659 -22.938,28.655 -1.133,43.968l10.417,7.312l20.592,-19.054c11.325,-10.482 23.696,-25.661 27.487,-33.736c10.554,-22.471 12.538,-20.53 37.763,36.946l4.617,10.525l17.312,-6.388c9.521,-3.515 18.087,-8.286 19.033,-10.603c3.275,-8.012 -19.046,-61.499 -30.996,-74.29c-9.296,-9.942 -11.567,-15.598 -10.079,-25.121c1.938,-12.4 6.567,-15.707 11.496,-8.212c3.358,5.104 33.812,23.324 38.987,23.324c5.217,0 21.279,-24.303 18.675,-28.26c-1.146,-1.742 -9.504,-6.721 -18.575,-11.069c-22.408,-10.74 -47.904,-56.011 -36.113,-64.125c44.471,-30.597 -1.875,-100.425 -49.992,-75.324m0.242,8.525c-11.858,7.801 -19.3,29.333 -14.35,41.502c10.167,24.98 42.221,32.91 60.812,15.046c32.337,-31.07 -8.9,-81.261 -46.463,-56.548m745.1,173.894c-32.696,43.615 -58.342,80.334 -56.992,81.602c3.346,3.147 2.404,4.294 64.521,-78.416c30.325,-40.378 54.413,-75.457 53.525,-77.95c-0.883,-2.493 -28.358,31.153 -61.054,74.764m1211.433,185.272c-38.117,56.481 -120.338,178.43 -182.708,270.999c-62.375,92.569 -114.821,169.725 -116.546,171.455c-1.725,1.73 -27.321,-10.196 -56.875,-26.503l-53.733,-29.65l-1.213,36.237c-0.667,19.931 3.562,186.857 9.396,370.947c5.837,184.09 11.838,375.66 13.338,425.714c1.5,50.054 3.904,91.004 5.337,91.004c3.492,0 12.817,-11.879 170.088,-216.73c74.587,-97.153 182.021,-236.637 238.742,-309.965l103.129,-133.323l-3.842,-46.727c-4.746,-57.796 -29.55,-396.315 -42.067,-574.158c-5.112,-72.654 -10.296,-132.079 -11.521,-132.047c-1.221,0.027 -33.408,46.265 -71.525,102.746m-1046.833,277.008l-207.8,129.39l2.575,18.412c2.783,19.884 55.342,520.976 79.717,760.001c8.225,80.651 15.85,147.481 16.95,148.51c1.967,1.847 467.871,-5.272 661.154,-10.102l98.958,-2.474l-0.029,-37.56c-0.017,-20.663 -3.679,-148.53 -8.137,-284.155c-4.458,-135.625 -10.158,-322.33 -12.671,-414.899c-2.508,-92.569 -5.512,-177.115 -6.679,-187.879l-2.121,-19.571l-38.304,-21.148c-21.071,-11.633 -111.921,-62.333 -201.892,-112.669c-89.975,-50.34 -165.912,-92.362 -168.75,-93.384c-2.842,-1.022 -98.679,56.364 -212.971,127.527m-488.342,-28.515c-15.425,20.988 -50.471,67.758 -77.879,103.932c-27.413,36.171 -48.688,66.85 -47.283,68.173c1.408,1.319 3.25,1.667 4.096,0.771c7.721,-8.192 146.421,-193.566 154.246,-206.146c1.671,-2.689 1.2,-4.893 -1.05,-4.893c-2.25,0 -16.708,17.175 -32.129,38.163m-484.883,626.357c-12.488,16.631 -60.917,79.132 -107.629,138.885c-46.713,59.757 -84.229,110.633 -83.367,113.064c1.917,5.394 219.942,-272.315 219.942,-280.147c0,-7.194 -8.871,1.448 -28.946,28.197" style="fill:#858585;stroke:#858585;stroke-width:4.04px;"/><path d="M1343.542,271.422c-48.237,39.087 -162.612,130.881 -254.167,203.989c-160.254,127.969 -290.087,232.081 -535.671,429.542l-115.046,92.503l1.588,18.917c0.875,10.404 5.342,72.639 9.929,138.298c4.588,65.66 16.708,234.751 26.938,375.758c10.233,141.007 23.683,329.034 29.892,417.835l11.292,161.458l21.058,0.035c11.583,0.023 66.062,1.722 121.063,3.777c55,2.055 160,5.531 233.333,7.727c73.333,2.192 155.929,5.057 183.546,6.36l50.212,2.368l35.013,-42.425c63.273,-76.696 126.447,-153.464 189.521,-230.304c63.221,-77.026 304.787,-375.581 422.325,-521.955c56.437,-70.241 112.948,-140.429 169.533,-210.565c80.379,-99.599 89.038,-111.804 90.213,-127.21l1.304,-17.038l45.833,1.233c123.829,3.327 159.942,16.831 141.683,52.982c-5.946,11.77 -605.875,765.148 -824.883,1035.874c-143.792,177.745 -311.25,381.95 -438.142,534.28c-60.283,72.391 -120.539,144.803 -180.767,217.235c-197.683,237.745 -574.646,687.214 -594.996,709.438c-3.45,3.769 -4.55,6.85 -2.446,6.85c2.104,0 12.2,-10.13 22.438,-22.506c10.233,-12.38 54.383,-64.779 98.104,-116.446c43.725,-51.667 152.421,-181.127 241.546,-287.689c627.117,-749.809 748.062,-897.689 1328.488,-1624.369c176.25,-220.66 328.654,-411.991 338.675,-425.185c45.688,-60.137 19.5,-79.136 -119.283,-86.526l-56.25,-2.998l-2.779,-88.068c-1.529,-48.438 -4.808,-173.494 -7.288,-277.904c-2.479,-104.41 -5.725,-237.604 -7.221,-295.983l-2.713,-106.152l-27.5,-2.439c-15.125,-1.343 -146.563,-2.29 -292.083,-2.102l-264.583,0.344l-87.708,71.061m-81.042,71.758c-130.489,104.537 -260.918,209.14 -391.287,313.808c-122.396,98.276 -266.608,213.908 -320.479,256.963l-97.946,78.283l39.233,2.826c36.304,2.615 485.871,15.073 536.8,14.874c12.413,-0.047 21.408,1.002 19.992,2.333c-3.954,3.715 -221.808,-0.474 -509.229,-9.793c-48.125,-1.562 -89.146,-1.546 -91.158,0.031c-2.083,1.632 2.079,82.768 9.65,188.09c7.325,101.873 20.608,286.503 29.521,410.288c8.917,123.785 20.225,284.949 25.133,358.144c4.908,73.194 10.346,135.723 12.079,138.952c2.558,4.756 17.742,6.345 79.8,8.368c42.154,1.374 165.704,5.488 274.558,9.14c108.854,3.652 207.133,6.051 218.4,5.331l20.479,-1.311l-0.829,-31.313c-0.454,-17.222 -2.65,-62.137 -4.875,-99.811c-24.321,-411.447 -51.092,-934.043 -47.683,-930.842c2.329,2.188 9.2,114.129 22.779,371.119c24.271,459.309 37.433,686.157 39.946,688.517c4.042,3.797 151.792,-178.156 151.758,-186.889c-0.017,-3.57 -2.846,-53.89 -6.292,-111.819c-5.342,-89.763 -5.412,-106.249 -0.496,-111.553c12.558,-13.547 336.342,-377.265 344.279,-386.745c4.667,-5.574 9.667,-9.018 11.117,-7.66c3.283,3.088 9.292,90.252 9.554,138.655c0.108,19.911 1.875,36.206 3.929,36.206c2.058,0 46.621,-53.393 99.033,-118.649l95.296,-118.653l-4.854,-89.775c-2.671,-49.377 -3.642,-91.763 -2.158,-94.19c7.921,-12.948 111.667,-122.149 115.2,-121.256c2.292,0.575 6.438,29.939 9.217,65.315c2.775,35.345 5.588,68.67 6.25,74.052c1.033,8.443 5.992,3.969 36.067,-32.554l34.862,-42.339l-4.892,-194.466c-2.829,-112.446 -5.736,-224.89 -8.721,-337.332c-2.108,-78.576 -3.879,-168.848 -3.933,-200.6c-0.054,-31.752 -1.504,-57.714 -3.225,-57.687c-1.721,0.023 -40.758,33.047 -86.75,73.39c-132.867,116.532 -309.204,270.769 -345.871,302.524c-18.513,16.032 -99.138,86.346 -179.167,156.253c-278.754,243.495 -318.421,277.485 -318.421,272.831c0,-1.225 62.342,-56.426 138.542,-122.665c222.083,-193.057 577.138,-503.609 730.208,-638.686c29.792,-26.287 54.792,-49.518 55.554,-51.616c0.896,-2.462 -100.662,-3.715 -285.417,-3.523l-286.804,0.301l-168.75,135.132m675.442,276.914l-39.142,36.801l3.037,60.031c1.671,33.016 3.963,60.904 5.092,61.969c1.129,1.065 20.587,-15.915 43.233,-37.732l41.179,-39.666l-2.267,-54.254c-2.371,-56.704 -3.375,-64.063 -8.737,-63.992c-1.787,0.023 -20.867,16.604 -42.396,36.844m0.317,7.413l-34.479,32.554l2.908,51.733c1.6,28.452 4.167,52.465 5.704,53.358c1.538,0.892 18.467,-13.175 37.625,-31.266l34.829,-32.887l-0.917,-40.304c-0.967,-42.754 -3.921,-65.746 -8.442,-65.746c-1.517,0 -18.271,14.651 -37.229,32.558m1454.342,65.108c-81.363,20.702 -157.167,75.351 -201.283,145.105c-9.496,15.019 -18.458,27.235 -19.917,27.145c-1.458,-0.086 -10.958,-12.694 -21.117,-28.017c-152.692,-230.339 -499.15,-168.93 -567.521,100.59c-10.717,42.245 -15.083,53.89 -19.296,51.444c-6.537,-3.793 -256.308,-10.807 -260.042,-7.3c-2.279,2.141 39.887,4.58 105.767,6.11c60.258,1.397 120.808,3.636 134.558,4.971l25,2.427l-1.379,53.209c-1.575,60.626 3.758,111.976 18.358,176.829c37.267,165.521 106.604,291.51 294.05,534.28c75.292,97.521 148.879,195.778 151.592,202.42c1.612,3.945 -10.308,5.034 -55.283,5.057c-95.929,0.047 -145.95,25.653 -118.425,60.622c5.088,6.47 8.604,11.762 7.812,11.762c-14.429,0 -57.646,11.468 -80.463,21.356c-99.417,43.063 -108.875,123.237 -19.575,165.913c41.804,19.978 136.804,35.599 181.437,29.834c19.608,-2.536 19.792,-2.454 19.808,8.572c0.054,38.566 64.742,73.359 145.817,78.428c95.617,5.981 206.008,-28.331 232.246,-72.189l9.092,-15.195l31.167,5.965c90.258,17.269 190.017,-32.538 163.104,-81.43l-6.8,-12.345l14.379,-5.644c58.083,-22.8 29.658,-76.885 -52.767,-100.402c-23.142,-6.603 -27.896,-9.308 -25.508,-14.51c20.104,-43.838 -34.921,-73.014 -147.492,-78.205l-55.492,-2.56l32.188,-39.141c34.962,-42.511 87.246,-99.173 167.863,-181.921c200.604,-205.911 309.783,-394.612 334.821,-578.69l4.963,-36.492l23.817,2.595c13.1,1.429 59.721,8.224 103.596,15.101c43.879,6.873 80.688,11.12 81.8,9.433c1.108,-1.687 0.679,-3.069 -0.958,-3.069c-1.633,0 -36.9,-5.221 -78.371,-11.602c-41.467,-6.384 -86.646,-12.995 -100.396,-14.694l-25,-3.092l-2.592,-78.267c-2.558,-77.293 -7.517,-110.731 -22.662,-152.839c-31.296,-87.011 -116.012,-163.971 -218.404,-198.404c-35.358,-11.891 -140.979,-13.719 -182.492,-3.159m35.413,0.434c-99.683,12.905 -194.908,79.798 -244.671,171.878c-10.867,20.107 -6.358,23.144 -42.15,-28.413c-105.221,-151.571 -310.975,-179.953 -450.013,-62.07c-115.338,97.791 -145.771,264.655 -88.625,485.909c35.208,136.298 110.996,270.745 265.829,471.552c85.158,110.445 161.154,211.822 184.933,246.693c10.275,15.069 37.308,52.559 60.071,83.312l41.392,55.917l22.746,-34.033c54.833,-82.044 145.233,-191.433 236.396,-286.049c130.125,-135.057 162.5,-171.886 216.042,-245.789c90.679,-125.166 137.279,-221.701 164.379,-340.53c16.325,-71.586 17.621,-225.212 2.371,-281.662c-42.408,-157.004 -200.487,-258.498 -368.7,-236.716m-1690.129,107.032l-59.771,56.25l2.804,50.336c3.517,63.159 6.488,84.291 11.617,82.686c2.217,-0.693 29.246,-26.749 60.058,-57.902l56.029,-56.642l-2.683,-62.626c-1.475,-34.444 -3.942,-63.914 -5.483,-65.487c-1.542,-1.577 -29.696,22.448 -62.571,53.385m0.633,7.229l-55.112,51.882l3.925,58.172c2.158,31.994 5.004,59.186 6.325,60.43c2.104,1.977 50.508,-44.703 94.612,-91.243l14.837,-15.657l-2.125,-57.734c-1.171,-31.755 -3.3,-57.734 -4.737,-57.734c-1.433,0 -27.408,23.348 -57.725,51.882m-155.183,116.109c-3.438,3.773 -33.688,33.129 -67.225,65.237l-60.975,58.376l5.171,79.351c2.842,43.643 6.138,80.263 7.321,81.375c1.183,1.112 31.45,-27.141 67.263,-62.779l65.112,-64.806l0,-40.425c0,-51.287 -4.662,-123.941 -7.925,-123.515c-1.371,0.18 -5.304,3.413 -8.742,7.186m-57.846,63.973l-63.508,59.64l2.8,60.669c1.542,33.368 4.008,67.57 5.483,76.009l2.683,15.336l61.812,-61.793l61.812,-61.796l-2.967,-72.924c-1.629,-40.108 -3.333,-73.343 -3.783,-73.852c-0.454,-0.509 -29.404,25.912 -64.333,58.712m359.683,25.062l-52.642,57.409l3.029,78.608c1.671,43.236 4.196,81.473 5.612,84.964c1.858,4.58 18.15,-12.948 58.221,-62.626l55.646,-68.979l-2.396,-19.571c-1.321,-10.764 -3.675,-43.787 -5.237,-73.39c-1.562,-29.599 -4.358,-53.819 -6.213,-53.819c-1.854,0 -27.067,25.833 -56.021,57.405m1260.663,30.973c-176.375,43.6 -243.604,259.355 -119.612,383.876c145.85,146.479 402.946,40.343 402.946,-166.347c0,-143.438 -142.008,-252.466 -283.333,-217.528m-1.729,6.028c-102.046,22.483 -184.842,133.938 -175.571,236.34c17.321,191.265 239.846,272.428 381.896,139.289c126.742,-118.79 81.571,-321.891 -82.471,-370.83c-33.013,-9.844 -90.783,-12.083 -123.854,-4.799m-1864.938,119.894l-77.083,69.143l0.858,31.481c1.596,58.536 9.704,183.612 12.046,185.812c1.279,1.202 10.038,-5.73 19.463,-15.406c9.429,-9.676 43.033,-43.647 74.679,-75.496l57.537,-57.91l0,-38.343c0,-58.931 -5.179,-168.778 -7.946,-168.594c-1.358,0.09 -37.158,31.278 -79.554,69.312m4.167,3.182c-37.812,33.489 -70.663,63.206 -73,66.043c-2.896,3.511 -2.646,30.569 0.779,84.898c2.763,43.862 5.146,88.996 5.292,100.296c0.142,11.3 1.683,20.549 3.421,20.549c2.983,0 107.617,-104.66 132.146,-132.181l11.412,-12.799l-3.054,-93.861c-1.679,-51.624 -4.225,-93.853 -5.65,-93.845c-1.429,0.008 -33.533,27.415 -71.346,60.9m1869.613,56.571c-23.175,17.124 -24.325,50.935 -2.321,68.329c35.429,28.002 86.771,-9.464 68.683,-50.124c-11.392,-25.61 -44.171,-34.605 -66.363,-18.205m4.646,3.558c-16.779,12.4 -22.312,31.9 -13.821,48.711c18.242,36.108 72.896,23.054 72.896,-17.414c0,-30.147 -35.312,-48.852 -59.075,-31.297m-707.592,104.731c-15.747,22.821 -31.508,45.632 -47.283,68.435c-4.238,6.102 -6.608,11.093 -5.271,11.093c1.338,0 22.742,-28.62 47.562,-63.605c53.617,-75.57 52.204,-73.406 47.946,-73.328c-1.854,0.035 -21.183,25.865 -42.954,57.405m-927.75,97.818c-55.25,62.059 -133.95,150.409 -174.892,196.333l-74.442,83.5l5.9,105.357c3.246,57.945 6.996,105.259 8.333,105.142c1.338,-0.117 18.371,-19.888 37.85,-43.936c19.479,-24.045 96.921,-119.503 172.092,-212.127l136.675,-168.406l-2.879,-80.036c-1.588,-44.018 -4.075,-84.228 -5.533,-89.348c-2.342,-8.22 -14.454,3.945 -103.104,103.521m584.458,383.339c-26.967,37.815 -48.25,69.488 -47.296,70.388c0.958,0.896 23.767,-29.344 50.688,-67.202c26.921,-37.861 48.204,-69.535 47.296,-70.388c-0.908,-0.853 -23.717,29.387 -50.688,67.202m816.208,154.241c-26.996,5.053 -51.646,15.797 -60.496,26.362c-10.529,12.572 -10.429,13.602 2.679,28.241c13.262,14.803 15.054,13.289 -25.517,21.571c-41.979,8.568 -70.558,21.105 -95.904,42.065c-90.683,74.983 3.971,159.603 178.529,159.603l47.558,0l2.812,16.502c8.175,48.046 98.208,79.653 198.592,69.719c87.192,-8.631 157.779,-38.644 173.379,-73.715c4.954,-11.144 7.404,-12.85 15.058,-10.509c42.958,13.124 129.7,3.417 163.475,-18.299c29.554,-19.003 31.537,-30.569 11.338,-66.067c-0.662,-1.17 5.287,-4.337 13.229,-7.034c16.429,-5.582 35.683,-25.011 35.683,-36.014c0,-20.264 -42.7,-48.524 -92.325,-61.096c-14.533,-3.683 -27.058,-7.12 -27.833,-7.636c-0.775,-0.521 2.825,-6.325 8.004,-12.901c17.158,-21.806 -6.663,-44.938 -61.821,-60.039c-40.5,-11.085 -137.342,-13.696 -145.304,-3.914c-21.783,26.765 -74.525,97.865 -90.167,121.558l-18.912,28.644l-41.442,-56.043c-22.792,-30.828 -48.383,-65.934 -56.867,-78.017c-15.383,-21.915 -15.483,-21.974 -40.821,-24.463c-32.2,-3.163 -71.463,-2.532 -92.929,1.483m-1032.075,139.868c-5.646,8.075 -13.592,19.962 -17.654,26.42l-7.392,11.742l10.367,-11.234c10.625,-11.515 29.967,-41.607 26.742,-41.607c-0.988,0 -6.417,6.607 -12.062,14.678m504.992,12.114c-21.771,14.611 -97.708,64.493 -168.75,110.848c-71.042,46.355 -150.2,98.202 -175.908,115.209l-46.742,30.926l-46.588,66.54c-47.05,67.206 -214.454,307.456 -348.346,499.934c-40.021,57.534 -72.083,106.523 -71.25,108.872c0.833,2.348 16.05,-4.646 33.846,-15.559c20.833,-12.776 32.875,-18.087 33.854,-14.932c2.221,7.132 83.129,784.785 92.192,886.095c1.567,17.512 4.304,34.049 6.079,36.75c3.188,4.842 105.825,3.777 647.292,-6.705l128.596,-2.493l27.942,-35.564c15.371,-19.559 77.329,-99.854 137.688,-178.43c60.358,-78.576 164.208,-213.321 230.775,-299.432c66.567,-86.111 121.688,-160.969 122.483,-166.351c0.8,-5.382 -7.137,-126.916 -17.637,-270.076c-35.579,-485.08 -36.179,-494.591 -31.771,-503.683c5.125,-10.56 12.704,-4.172 -139.296,-117.444c-255.379,-190.306 -365.967,-271.293 -370.317,-271.183c-2.508,0.063 -22.371,12.067 -44.142,26.679m19.579,23.113c-14.733,23.144 -55.492,87.872 -90.575,143.845c-85.808,136.905 -227.671,361.62 -262.521,415.846l-28.279,44.003l11.104,7.347c6.108,4.039 55.171,31.986 109.025,62.102c53.854,30.115 167.292,93.646 252.083,141.179c118.271,66.306 155.292,85.344 158.992,81.774c2.654,-2.556 51.554,-74.224 108.667,-159.259c121.825,-181.377 237.825,-353.49 257.971,-382.756c7.838,-11.386 13.042,-22.538 11.562,-24.784c-2.675,-4.067 -45.771,-36.542 -255.942,-192.873c-150.9,-112.242 -241.271,-178.501 -243.467,-178.501c-1.008,0 -13.887,18.933 -28.621,42.077m-94.579,32.515c-69.065,45.105 -138.078,90.28 -207.038,135.527l-104.954,68.893l-97.129,139.183c-145.175,208.029 -342.379,491.307 -357.25,513.183c-10.35,15.222 -9.104,14.49 241.371,-141.876l235.417,-146.972l74.562,-118.708c186.604,-297.091 239.467,-381.116 275.383,-437.711c45.467,-71.641 49.3,-78.302 44.992,-78.216c-1.8,0.039 -49.208,30.053 -105.354,66.697m-1406.717,62.325c-24.858,9.437 -33.9,41.646 -18.396,65.534c7.788,11.997 14.225,15.12 37.304,18.087c7.475,0.963 14.029,7.836 25.163,26.397c9.308,15.508 20.967,28.714 30.521,34.562c16.6,10.161 18.996,16.177 9.412,23.645c-7.896,6.157 -42.325,-15.285 -49.013,-30.519l-4.575,-10.419l-3.275,15.657c-5.842,27.904 -4.288,37.024 8.933,52.481c18.375,21.477 31.45,63.178 21.9,69.836c-13.796,9.617 -20.283,5.754 -27.758,-16.533c-6.575,-19.594 -24.279,-45.114 -31.296,-45.114c-1.587,0 -5.296,7.488 -8.246,16.635c-3.008,9.339 -14.325,26.076 -25.796,38.163l-20.438,21.528l-11.446,-10.736l-11.446,-10.733l20.004,-19.078l20,-19.074l7.95,-48.473c8.162,-49.757 10.008,-75.249 3.608,-49.823c-4.087,16.248 -35.188,60.062 -42.625,60.062c-15.488,0 9.975,-51.573 41.796,-84.663c16.404,-17.058 11.95,-21.105 -4.825,-4.384c-13.137,13.093 -52.408,73.793 -52.408,81.003c0,2.853 4.612,8.024 10.25,11.496c9.946,6.122 10.596,5.899 21.875,-7.378c14.004,-16.49 18.267,-17.277 15.862,-2.924c-1.418,8.47 -2.834,16.94 -4.246,25.411c-1.658,9.954 -9.083,21.774 -23.179,36.91l-20.742,22.264l13.458,13.046l13.458,13.042l24.096,-22.401c13.254,-12.322 26.138,-28.197 28.625,-35.278c2.488,-7.081 5.904,-12.874 7.596,-12.874c4.188,0 19.142,26.056 25.242,43.979c2.738,8.044 6.633,15.586 8.658,16.76c7.083,4.114 33.212,-9.159 33.212,-16.87c0,-14.287 -17.042,-53.769 -29.487,-68.314c-16.212,-18.952 -14.617,-48.923 1.871,-35.161c21.675,18.091 40.592,25.238 46.733,17.661c8.5,-10.486 11.754,-22.107 6.637,-23.708c-15.579,-4.877 -33.721,-21.712 -45.196,-41.932l-13.196,-23.25l12.154,-13.003c32.463,-34.73 -4.137,-88.444 -48.733,-71.519m8.8,3.167c-13.087,2.525 -26.721,16.553 -29.471,30.331c-7.721,38.652 47.596,60.802 69.558,27.857c18.542,-27.826 -6.792,-64.599 -40.087,-58.188m779.979,119.229c-35.263,44.743 -103.05,137.179 -101.596,138.541c1.383,1.303 61.067,-76.298 108.054,-140.498c11.054,-15.097 5.712,-13.48 -6.458,1.957m1153.354,258.286c-67.025,99.901 -152.217,226.39 -267.454,397.117l-24.296,35.994l-56.021,-30.949c-30.812,-17.023 -56.517,-30.487 -57.121,-29.92c-0.604,0.571 0.708,56.426 2.917,124.125c2.208,67.699 7.779,244.626 12.379,393.168c10.921,352.758 13.296,412.965 16.279,412.821c1.367,-0.07 6.192,-4.897 10.725,-10.729c4.538,-5.836 71.867,-93.407 149.625,-194.607c81.571,-106.147 163.261,-212.212 245.071,-318.196c57.029,-73.809 104.613,-136.47 105.746,-139.242c1.133,-2.775 -2.679,-67.441 -8.471,-143.708c-7.858,-104.27 -15.549,-208.55 -23.075,-312.842c-6.896,-95.799 -14.421,-198.056 -16.712,-227.243c-2.296,-29.184 -4.175,-57.804 -4.175,-63.605c0,-5.797 -1.404,-10.459 -3.125,-10.361c-1.721,0.102 -38.75,53.279 -82.292,118.176m-1038.883,264.396l-205.546,128.043l2.337,27.399c1.288,15.069 9.892,98.734 19.121,185.922c7.676,72.406 15.294,144.818 22.854,217.235c3.342,32.292 12.825,123.883 21.079,203.535c8.25,79.653 18.362,178.771 22.467,220.26c4.104,41.494 8.296,76.224 9.317,77.187c1.021,0.959 86.133,0.02 189.138,-2.09c126.746,-2.564 253.494,-4.995 380.246,-7.292c106.125,-1.902 193.683,-4.137 194.567,-4.967c0.883,-0.83 -0.108,-50.778 -2.204,-110.989c-2.096,-60.215 -7.7,-235.42 -12.458,-389.344c-4.754,-153.924 -9.971,-316.791 -11.587,-361.933l-2.946,-82.068l-139.583,-77.942c-68.433,-38.214 -136.872,-76.419 -205.317,-114.614c-36.15,-20.173 -68.025,-36.609 -70.833,-36.531c-2.804,0.082 -97.596,57.765 -210.65,128.188m-476.942,-37.329c-25.131,33.42 -50.305,66.811 -75.521,100.175c-31.45,41.639 -56.446,76.404 -55.542,77.257c1.979,1.859 2.692,0.955 78.746,-100.128c69.246,-92.033 76.225,-101.768 73,-101.768c-1.296,0 -10.604,11.01 -20.683,24.463m-488.825,632.134c-10.979,14.529 -58.554,75.739 -105.729,136.016c-88.008,112.461 -98.892,127.065 -84.596,113.51c12.363,-11.723 198.238,-250.313 211.167,-271.054c8.863,-14.212 -3.412,-1.534 -20.842,21.528" style="fill:#313231;stroke:#313231;stroke-width:34.36px;"/></svg>