<svg
	xmlns="http://www.w3.org/2000/svg"
	version="1.1"
	xmlns:xlink="http://www.w3.org/1999/xlink"
	xmlns:svgjs="http://svgjs.dev/svgjs"
	viewBox="0 0 800 800">
	<defs>
		<linearGradient x1="50%" y1="0%" x2="50%" y2="100%" id="nnneon-grad">
			<stop
				stop-color="oklch(75.925% 0.13661 68.392)"
				stop-opacity="1"
				offset="0%"></stop>
			<stop stop-color="#F9F9F9" stop-opacity="1" offset="100%"></stop>
			<stop stop-color="#072448" stop-opacity="1" offset="101%"></stop>
		</linearGradient>
		<filter
			id="nnneon-filter"
			x="-100%"
			y="-100%"
			width="400%"
			height="400%"
			filterUnits="objectBoundingBox"
			primitiveUnits="userSpaceOnUse"
			color-interpolation-filters="sRGB">
			<feGaussianBlur
				stdDeviation="17 8"
				x="0%"
				y="0%"
				width="100%"
				height="100%"
				in="SourceGraphic"
				edgeMode="none"
				result="blur"></feGaussianBlur>
		</filter>
		<filter
			id="nnneon-filter2"
			x="-100%"
			y="-100%"
			width="400%"
			height="400%"
			filterUnits="objectBoundingBox"
			primitiveUnits="userSpaceOnUse"
			color-interpolation-filters="sRGB">
			<feGaussianBlur
				stdDeviation="10 17"
				x="0%"
				y="0%"
				width="100%"
				height="100%"
				in="SourceGraphic"
				edgeMode="none"
				result="blur"></feGaussianBlur>
		</filter>
	</defs>
	<g stroke-width="16" stroke="url(#nnneon-grad)" fill="none">
		<path
			d="M400 0L800 200V600L400 800L0 600V200L400 0Z "
			filter="url(#nnneon-filter)"></path>
		<path
			d="M412 0L812 200V600L412 800L12 600V200L412 0Z "
			filter="url(#nnneon-filter2)"
			opacity="0.25"></path>
		<path
			d="M388 0L788 200V600L388 800L-12 600V200L388 0Z "
			filter="url(#nnneon-filter2)"
			opacity="0.25"></path>
		<path d="M400 0L800 200V600L400 800L0 600V200L400 0Z "></path>
	</g>
</svg>