<svg
	width="365"
	height="264"
	viewBox="0 0 365 264"
	fill="none"
	xmlns="http://www.w3.org/2000/svg">
	<rect x="65.2624" y="15.4329" width="299" height="49" stroke="black" />
	<g clip-path="url(#clip0_0_1)">
		<path
			d="M98.6056 29.0877C86.1654 33.2035 76.3901 38.2573 66.7986 45.4877C49.8732 58.2655 37.1699 75.7199 30.1001 95.9253C24.7405 111.238 22.9354 127.894 24.8939 144.08C25.5857 149.773 26.1943 152.757 27.942 159.279C29.6635 165.704 30.5851 168.431 32.8483 173.702C45.1178 202.515 69.3587 224.556 99.2305 234.046C115.893 239.336 132.934 240.404 150.822 237.246C154.436 236.608 164.192 233.942 167.729 232.629C174.642 230.046 180.703 227.135 186.425 223.672C211.946 208.243 229.857 182.75 235.83 153.396C237.503 145.123 238.067 139.129 238.024 129.507C237.99 119.987 237.225 114.279 234.738 104.999C232.95 98.2612 231.347 93.7695 228.476 87.4613C218.89 66.3282 203.352 49.2939 183.344 37.996C167.502 29.025 150.57 24.4149 132.342 24.0998C122.782 23.9312 119.463 24.2466 108.824 26.4017C106.566 26.8504 100.547 28.4283 98.6056 29.0877ZM107.249 27.5195L108.269 27.246L107.861 29.0249C107.447 30.7877 107.435 30.8082 107.834 32.9446C108.067 34.2037 108.32 35.1447 108.422 35.2041C108.628 35.323 111.539 35.4299 111.598 35.3271C111.622 35.2859 111.594 34.5979 111.535 33.7963C111.442 32.4126 111.468 32.2492 111.994 31.3606L112.555 30.4103L118.34 31.3294C121.518 31.8516 124.975 32.4384 126.04 32.6571L127.967 33.045L132.137 31.5627L136.285 30.0685L137.155 28.5835C137.629 27.7609 138.057 27.0897 138.122 27.0724C138.17 27.0594 141.292 27.6313 145.06 28.3433L151.885 29.6447L154.606 28.9154L157.344 28.1819L159.147 28.69C164.694 30.2119 171.341 32.7262 176.961 35.4285C179.214 36.5117 183.451 38.7846 183.388 38.8712C183.364 38.9123 181.999 38.8085 180.324 38.6486C173.054 37.9535 168.033 36.9688 165.359 35.7376L164.407 35.297L158.271 36.4369L152.115 37.5649L151.131 39.2718C150.581 40.2016 150.173 41.076 150.212 41.2221C150.263 41.3475 150.743 42.0363 151.301 42.7563L152.307 44.0516L153.471 43.7921C154.127 43.6509 154.663 43.5769 154.697 43.6375C154.714 43.7024 155.068 44.6336 155.481 45.7227C155.895 46.8118 156.223 47.7149 156.228 47.7311C156.216 47.7517 155.206 47.4831 153.984 47.1325C152.238 46.6438 151.744 46.5501 151.679 46.759C151.632 46.9105 151.327 48.1051 150.984 49.4145C150.45 51.5051 150.321 51.8005 150.008 51.7975C149.812 51.7804 149.207 51.8555 148.659 51.9501C148.116 52.0609 147.507 52.1198 147.307 52.0864C147.107 52.0531 146.761 52.0587 146.526 52.0871C146.225 52.1327 145.979 51.9902 145.651 51.6085C145.149 51.0301 145.031 51.0443 143.784 51.6392C143.231 51.9091 142.85 52.2372 142.597 52.6528L142.237 53.2536L141.36 52.8973C140.52 52.5485 140.414 52.5421 139.135 52.885C137.693 53.2713 137.761 53.201 137.709 54.4322C137.694 54.7665 137.772 54.7978 138.543 54.6955L139.384 54.592L138.898 55.6959C138.464 56.7338 138.454 56.8236 138.756 57.1079C139.231 57.5197 139.223 57.5565 138.526 57.7431C137.733 57.9558 135.622 57.9824 134.097 57.7997C132.768 57.6342 131.454 57.9166 130.707 58.4992C130.101 58.9574 129.369 60.1794 127.895 63.1655L126.787 65.4448L128.41 66.3836L130.033 67.3224L130.957 67.075C131.475 66.9361 132.49 66.8379 133.207 66.8547C134.326 66.8851 134.551 66.9466 134.785 67.3013C135.102 67.7727 135.317 67.7325 138.181 66.7565L139.742 66.2337L141.233 64.217C142.796 62.0769 142.796 62.0769 145.27 60.9443C146.275 60.4837 146.292 60.4793 148.212 60.7125C149.969 60.9199 150.209 60.9078 151.025 60.5847C153.442 59.6242 153.777 59.5169 153.712 59.7257C153.619 60.0287 154.409 60.965 155.756 62.1691C156.371 62.7171 157.487 63.9657 158.228 64.915C158.989 65.8762 160.116 67.1043 160.736 67.6685C161.752 68.544 161.94 68.7894 162.336 69.8136C162.774 70.9308 162.803 70.9752 163.183 70.8386C163.401 70.7453 164.488 70.5237 165.616 70.3259C166.743 70.1281 167.68 69.9294 167.715 69.8677C167.755 69.8222 167.386 69.4168 166.923 68.9844C166.294 68.3877 165.723 68.0712 164.671 67.7096C163.501 67.293 163.209 67.1104 162.8 66.559C162.546 66.1924 161.475 64.723 160.434 63.298C159.376 61.8773 158.549 60.6727 158.577 60.6478C158.585 60.611 158.902 60.3695 159.268 60.115C160.024 59.5648 160.003 59.5529 161.21 60.8815C161.599 61.2988 162.423 62.1041 163.05 62.6316C164.166 63.6195 164.223 63.6389 166.359 64.0927L168.536 64.5701L168.99 65.9438C169.685 68.0182 170.031 68.2733 172.631 68.5156L174.677 68.6979L175.858 67.5988C177.54 66.0352 177.552 66.0147 177.772 65.0862L177.981 64.2476L177.057 63.5214L176.117 62.7994L177.883 62.3263L179.665 61.8488L181.446 62.9888C183.182 64.0887 183.281 64.1319 185.906 64.6631C188.07 65.0919 188.601 65.2624 188.598 65.5069C188.604 65.6616 188.675 66.2512 188.75 66.7877L188.893 67.7754L190.701 68.8211L192.513 69.8831L192.115 70.5986C191.89 70.9893 191.668 71.3271 191.587 71.3488C191.214 71.4486 184.305 70.222 182.196 69.6741L179.736 69.0465L176.176 70.2091C174.213 70.8566 172.32 71.5029 171.977 71.6471L171.339 71.9224L171.804 73.3977C172.058 74.2165 172.344 75.0266 172.425 75.1964C172.538 75.4267 173.571 75.8456 175.703 76.5439C178.215 77.3662 179.416 77.6357 181.993 77.9885C184.766 78.3584 190.195 79.6338 190.567 79.9862C190.638 80.0543 190.806 80.8785 190.953 81.8131C191.183 83.386 191.164 83.7041 190.785 85.3359C190.567 86.3335 190.337 87.1603 190.256 87.182C190.191 87.1993 189.455 86.9792 188.616 86.6997C187.564 86.3381 185.967 85.4967 183.315 83.8944L179.529 81.6223L178.698 81.8275C177.905 82.0402 177.794 82.0175 174.81 80.7304L171.737 79.4325L170.583 79.7937L169.43 80.1549L169.459 81.6251L169.489 83.0954L168.909 83.1986C167.846 83.3791 167.747 83.3359 167.535 82.6101C167.435 82.2369 167.269 81.8119 167.166 81.6832C167.062 81.5546 164.492 80.4521 161.444 79.2515C158.396 78.051 155.913 77.0122 155.921 76.9754C155.907 76.9268 156.241 76.2287 156.651 75.4234C157.367 74.0143 157.43 73.9277 158.598 73.2321C159.275 72.8421 159.798 72.4587 159.78 72.3938C159.767 72.3451 159.275 71.8684 158.672 71.3691L157.611 70.4536L156.723 70.6393C155.916 70.8034 155.622 70.743 153.567 70.0069L151.287 69.2092L149.546 70.1627L147.805 71.1162L146.386 70.4877C145.611 70.1215 144.287 69.52 143.474 69.1463L141.965 68.4379L140.42 68.9563C138.073 69.7241 135.661 69.9879 133.289 69.754L131.325 69.5501L129.19 70.3307L127.055 71.1114L125.149 73.3957L123.244 75.68L121.157 76.6392C119.251 77.4976 118.986 77.6731 118.123 78.5999C117.612 79.1542 116.669 79.9112 116.057 80.2838C115.01 80.9122 114.918 81.0237 114.524 82.0161L114.115 83.0821L112.048 83.5317L109.997 83.9769L108.336 86.5261C107.282 88.1649 106.702 89.2418 106.695 89.5393C106.696 89.8001 106.753 91.2454 106.8 92.7805L106.896 95.5371L105.366 98.3815C103.879 101.127 103.841 101.242 103.864 102.366C103.872 103.042 104.054 104.176 104.293 105.068C104.689 106.545 104.764 106.698 106.064 108.437C107.8 110.771 109.842 113.076 114.238 117.689L117.78 121.383L118.855 121.703C119.869 121.988 120.093 121.98 121.723 121.648L123.487 121.297L126.196 122.466C128.093 123.262 129.047 123.581 129.339 123.502C129.581 123.437 131.264 123.108 133.081 122.76C134.898 122.413 136.467 122.114 136.548 122.092C136.645 122.066 137.078 122.385 137.521 122.806L138.315 123.567L139.127 123.227L139.943 122.904L141.899 124.241L143.866 125.557L144.509 125.298C144.868 125.149 145.425 124.896 145.785 124.747L146.402 124.46L147.602 127.251L148.78 130.031L148.147 131.748C147.793 132.695 147.088 134.084 146.593 134.825L145.672 136.185L146.868 138.769C147.515 140.212 148.813 143.499 149.753 146.168C151.471 150.96 151.471 150.96 151.452 152.182C151.432 154.57 151.432 154.57 149.688 156.55L148.103 158.348L147.639 165.881L147.19 173.409L148.847 176.738L150.503 180.068L150.862 183.224L151.226 186.395L150.3 188.643L149.379 190.907L149.761 192.787C150.015 194.058 150.114 195.075 150.066 195.87L149.985 197.057L151.524 197.097L153.062 197.137L154.487 195.973L155.895 194.813L157.903 194.275L159.912 193.736L163.573 193.921L167.25 194.1L169.085 192.461C170.107 191.544 172.268 189.435 173.887 187.766L176.841 184.731L178.527 184.088C179.452 183.719 180.251 183.331 180.29 183.216C180.312 183.106 180.119 181.801 179.866 180.339L179.377 177.67L180.013 176.352L180.662 175.013L182.197 174.393C184.653 173.387 184.742 173.328 185.985 171.552L187.145 169.92L188.408 169.581L189.672 169.242L193.105 163.975C196.966 158.037 196.705 158.75 196.316 155.29C196.21 154.309 196.072 152.694 196.026 151.681C195.938 149.861 195.946 149.824 196.992 146.796L198.034 143.752L199.089 143.348C199.659 143.143 200.408 142.89 200.764 142.795C201.153 142.69 201.994 142.135 203.053 141.294C204.45 140.155 205.149 139.394 207.634 136.293L210.578 132.635L211.229 130.27C212.397 126.01 212.802 124.475 212.762 124.329C212.741 124.248 212.12 124.136 211.391 124.071L210.063 123.974L209.621 124.788L209.196 125.598L207.363 124.785C205.055 123.751 205.169 123.79 205.137 124.251C205.1 124.504 204.851 123.962 204.33 122.537C203.818 121.144 203.584 120.337 203.646 120.112C203.827 119.298 203.518 118.859 202.17 118.038C200.661 117.138 199.683 116.079 197.752 113.344C196.551 111.649 196.395 111.325 195.499 108.888C194.704 106.701 194.535 106.068 194.483 105.16C194.425 104.428 194.23 103.506 193.845 102.392C193.274 100.65 191.882 95.1973 191.715 93.9901L191.618 93.3032L192.907 93.2534C193.615 93.2377 194.262 93.2556 194.323 93.2912C194.406 93.3388 194.732 95.0771 195.049 97.1659L195.631 100.957L196.861 102.436L198.086 103.899L198.855 106.771C200.021 111.119 200.864 113.101 202.669 115.818L204.172 118.058L206.797 120.015C208.227 121.075 209.427 121.989 209.463 121.996C209.488 122.024 209.836 121.636 210.226 121.148C210.906 120.253 210.923 120.249 212.364 119.862L213.802 119.46L217.049 113.112L220.297 106.764L220.216 105.36C220.166 104.591 220.104 103.842 220.081 103.692C220.003 103.4 218.637 102.253 215.536 99.8842C213.269 98.1615 213.159 98.1389 212.075 99.4726C211.68 99.9436 211.292 100.308 211.214 100.277C211.148 100.225 210.832 99.5624 210.501 98.7815C210.013 97.6081 209.729 97.1972 208.868 96.3151C208.011 95.4492 207.76 95.2904 207.493 95.3966C207.259 95.4942 207.013 95.4208 206.761 95.1927C206.443 94.9128 206.344 94.6089 206.108 93.4028C205.964 92.6066 205.823 91.4968 205.781 90.9515C205.719 89.9422 205.715 89.926 206.587 89.1009C207.072 88.6407 207.481 88.2877 207.522 88.3114C207.745 88.4952 210.604 92.6851 211.195 93.7264L211.933 94.9895L214.624 96.2855C216.101 97.0027 218.782 98.3885 220.577 99.3856L223.822 101.194L225.148 103.291C225.888 104.431 227.021 106.458 227.666 107.763L228.858 110.139L230.093 110.278L231.34 110.396L232.157 113.637C232.598 115.415 233.535 119.754 234.255 123.283C234.959 126.816 235.562 129.715 235.598 129.722C235.635 129.73 236.007 129.821 236.448 129.912C236.873 130.007 237.241 130.151 237.263 130.232C237.398 130.735 237.222 137.077 236.991 139.974C236.041 152.175 233.143 163.715 228.265 174.865C218.149 197.956 200.09 216.741 177.519 227.693C171.385 230.658 165.838 232.701 158.71 234.611C151.259 236.607 145.328 237.605 138.26 238.056L135.497 238.24L133.527 237.046C132.446 236.379 131.339 235.684 131.064 235.498C130.532 235.136 130.268 235.12 105.794 234.113L101.23 233.927L97.9893 232.848C84.1341 228.248 71.5755 220.971 60.6218 211.194L58.2047 209.042L55.7625 203.298C53.3408 197.564 53.3203 197.553 52.4339 196.642C51.9372 196.149 51.1501 195.091 50.6692 194.333L49.8069 192.929L49.4911 190.649C49.2551 188.991 49.227 188.303 49.391 188.137C49.4945 188.005 49.9658 187.496 50.421 186.992L51.2353 186.078L50.9638 185.194C50.8171 184.712 50.4263 183.512 50.1169 182.552L49.5576 180.789L50.9239 179.084L52.3019 177.358L51.8368 175.622L51.3673 173.87L53.902 167.713C55.2882 164.333 56.4679 161.478 56.5272 161.375C56.5983 161.252 57.281 161.208 58.2621 161.241L59.8861 161.275L60.3266 160.392C60.6142 159.846 61.6065 156.032 62.9073 150.519L65.0313 141.533L67.238 140.438L69.4447 139.342L69.9089 138.418C70.8092 136.594 70.7911 136.721 70.2793 135.589C69.9031 134.768 69.391 134.088 67.6918 132.282L65.5782 130.032L63.3082 129.336L61.0382 128.64L60.1853 125.651L59.353 122.675L56.0565 121.906L52.7805 121.149L51.7521 117.182L50.74 113.21L51.0662 111.836L51.4087 110.457L50.4738 109.56C49.5843 108.703 49.4243 108.624 47.5241 108.142L45.5094 107.621L44.6641 106.021L43.8189 104.422L43.303 101.395C43.0303 99.7295 42.7125 98.2843 42.5967 98.1762C42.3154 97.9038 37.6769 94.3299 37.6283 94.3429C37.5959 94.3516 36.5793 95.0935 35.3781 95.9892C33.2327 97.5726 33.128 97.6354 31.6377 98.0348C30.7953 98.2605 30.1062 98.4104 30.0931 98.3617C30.0453 98.1832 31.4426 94.2614 32.4919 91.6327C35.9356 82.9716 40.7678 74.3733 46.3291 67.0055C48.7 63.8662 48.5435 63.9951 50.5922 63.4113C51.9605 63.0099 53.0601 62.837 55.4205 62.6393L58.4918 62.3728L58.9347 61.6281C59.1998 61.1919 59.4265 60.4182 59.485 59.7939C59.5766 58.9694 59.8294 58.2931 60.5038 57.0516L61.3991 55.4032L62.7219 54.9618C63.8709 54.5843 64.157 54.4207 64.8085 53.7419C65.7037 52.8064 67.5275 51.4483 68.5564 50.9465C68.9677 50.732 71.4016 49.8364 73.9738 48.9385L78.6614 47.3173L79.0332 46.696C79.239 46.3626 79.6483 45.5573 79.9422 44.9047C80.4677 43.7553 80.4957 43.7304 81.2895 43.5177C82.4116 43.2344 84.5105 42.9677 85.1016 43.0354C85.3707 43.0676 85.667 43.2664 85.7971 43.4924C85.9065 43.7065 86.2258 44.0557 86.4735 44.2676C86.8284 44.5551 86.9509 44.8179 87.0675 45.4474C87.1778 46.183 87.2276 46.2392 87.4358 46.0443C87.576 45.9198 88.1967 44.8666 88.8118 43.728C89.8169 41.8414 89.9955 41.3415 90.6275 38.5811L91.3358 35.5221L92.4231 35.109C93.0213 34.8792 94.0482 34.4997 94.7155 34.2687L95.9206 33.8414L96.3093 32.3114L96.7142 30.7769L95.9916 30.8662L95.2851 30.9512L96.082 30.6855C99.3994 29.5879 102.472 28.6777 104.202 28.2663C105.329 27.9992 106.698 27.6671 107.249 27.5195ZM27.7534 144.514C29.0005 146.771 30.7974 150.237 31.7383 152.193L33.4553 155.75L34.2778 159.338L35.1002 162.926L37.3664 165.292C38.6131 166.575 39.65 167.724 39.6804 167.837C39.7065 167.934 39.7097 169.307 39.6916 170.86L39.6551 173.704L40.7811 178.619L41.9276 183.546L43.6723 186.105C45.4959 188.763 46.3163 190.335 49.2252 196.72L50.5782 199.696L51.9763 201.025C53.027 202.031 53.7837 202.976 55.1201 204.983C56.1013 206.441 56.8248 207.586 56.7221 207.527C56.4301 207.344 53.4594 204.228 51.7167 202.26C43.1033 192.535 36.5527 181.63 31.7551 169.039C29.25 162.476 26.8866 153.267 25.9118 146.26C25.5106 143.272 25.2382 140.441 25.3678 140.406C25.4164 140.393 26.5019 142.241 27.7534 144.514Z"
			fill="black"
		/>
		<path
			d="M139.503 43.0484L140.23 45.1142L139.275 47.0569C138.61 48.4001 138.249 49.3838 138.148 50.1758C138.057 50.8088 138.01 51.3433 138.051 51.367C138.137 51.4308 145.445 49.0901 145.504 48.9873C145.591 48.8596 144.212 46.6905 143.12 45.2092C142.554 44.4567 141.854 43.2704 141.549 42.5869C141.245 41.9034 140.916 41.2611 140.817 41.1486C140.647 40.9681 139.379 40.8382 138.938 40.9392C138.824 40.9696 139.007 41.651 139.503 43.0484Z"
			fill="black"
		/>
		<path
			d="M202.957 166.918L201.215 169.297L198.623 170.183L196.03 171.069L194.908 172.517C193.809 173.925 193.778 174.003 193.631 175.398C193.479 176.778 193.413 176.917 192.18 178.796C190.876 180.797 190.431 181.212 189.329 181.507C188.649 181.689 188.622 181.783 189.138 182.219C189.473 182.494 189.458 182.568 188.801 183.874L188.104 185.226L188.46 186.557C188.821 187.903 188.821 187.903 189.242 187.79C189.777 187.647 194.539 185.85 194.76 185.703C194.848 185.645 196.377 182.731 198.148 179.231C199.914 175.715 201.571 172.436 201.823 171.951C202.244 171.126 202.372 171.022 203.365 170.581C204.435 170.104 204.468 170.095 205.444 168.425C205.982 167.515 206.403 166.69 206.377 166.592C206.303 166.317 204.92 164.461 204.807 164.492C204.746 164.525 203.906 165.602 202.957 166.918Z"
			fill="black"
		/>
	</g>
	<path
		d="M330.762 48.2663C335.365 48.2663 339.096 44.5353 339.096 39.9329C339.096 35.3305 335.365 31.5996 330.762 31.5996C326.16 31.5996 322.429 35.3305 322.429 39.9329C322.429 44.5353 326.16 48.2663 330.762 48.2663Z"
		stroke="black"
		stroke-width="2"
		stroke-linecap="round"
		stroke-linejoin="round"
	/>
	<path
		d="M330.762 19.0996V23.2663"
		stroke="black"
		stroke-width="2"
		stroke-linecap="round"
		stroke-linejoin="round"
	/>
	<path
		d="M330.762 56.5996V60.7663"
		stroke="black"
		stroke-width="2"
		stroke-linecap="round"
		stroke-linejoin="round"
	/>
	<path
		d="M316.033 25.2038L318.971 28.1413"
		stroke="black"
		stroke-width="2"
		stroke-linecap="round"
		stroke-linejoin="round"
	/>
	<path
		d="M342.554 51.7246L345.492 54.6621"
		stroke="black"
		stroke-width="2"
		stroke-linecap="round"
		stroke-linejoin="round"
	/>
	<path
		d="M309.929 39.9329H314.096"
		stroke="black"
		stroke-width="2"
		stroke-linecap="round"
		stroke-linejoin="round"
	/>
	<path
		d="M347.429 39.9329H351.596"
		stroke="black"
		stroke-width="2"
		stroke-linecap="round"
		stroke-linejoin="round"
	/>
	<path
		d="M318.971 51.7246L316.033 54.6621"
		stroke="black"
		stroke-width="2"
		stroke-linecap="round"
		stroke-linejoin="round"
	/>
	<path
		d="M345.492 25.2038L342.554 28.1413"
		stroke="black"
		stroke-width="2"
		stroke-linecap="round"
		stroke-linejoin="round"
	/>
	<defs>
		<clipPath id="clip0_0_1">
			<rect
				width="214"
				height="215"
				fill="white"
				transform="translate(0 55.3873) rotate(-15)"
			/>
		</clipPath>
	</defs>
</svg>